<svg width="41" height="41" viewBox="0 0 41 41" fill="none" xmlns="http://www.w3.org/2000/svg">
<g clip-path="url(#clip0_1_1919)">
<g clip-path="url(#clip1_1_1919)">
<g clip-path="url(#clip2_1_1919)">
<path d="M24.6519 31.6758H16.7027C16.614 31.6758 16.5289 31.711 16.4662 31.7738C16.4034 31.8365 16.3682 31.9216 16.3682 32.0103C16.3682 32.0991 16.4034 32.1842 16.4662 32.2469C16.5289 32.3097 16.614 32.3449 16.7027 32.3449H24.6519C24.7406 32.3449 24.8257 32.3097 24.8884 32.2469C24.9512 32.1842 24.9864 32.0991 24.9864 32.0103C24.9864 31.9216 24.9512 31.8365 24.8884 31.7738C24.8257 31.711 24.7406 31.6758 24.6519 31.6758ZM23.869 33.4724H17.4889C17.4002 33.4724 17.3151 33.5076 17.2524 33.5704C17.1896 33.6331 17.1544 33.7182 17.1544 33.8069C17.1544 33.8957 17.1896 33.9808 17.2524 34.0435C17.3151 34.1062 17.4002 34.1415 17.4889 34.1415H23.869C23.9577 34.1415 24.0428 34.1062 24.1056 34.0435C24.1683 33.9808 24.2036 33.8957 24.2036 33.8069C24.2036 33.7182 24.1683 33.6331 24.1056 33.5704C24.0428 33.5076 23.9577 33.4724 23.869 33.4724ZM19.4963 37.7614H16.7897C16.701 37.7614 16.6159 37.7967 16.5531 37.8594C16.4904 37.9222 16.4551 38.0073 16.4551 38.096C16.4551 38.1847 16.4904 38.2698 16.5531 38.3326C16.6159 38.3953 16.701 38.4305 16.7897 38.4305H19.4963C19.585 38.4305 19.6701 38.3953 19.7329 38.3326C19.7956 38.2698 19.8309 38.1847 19.8309 38.096C19.8309 38.0073 19.7956 37.9222 19.7329 37.8594C19.6701 37.7967 19.585 37.7614 19.4963 37.7614Z" fill="black"/>
<path d="M40.3428 14.7671L20.8546 2.72299C20.8015 2.68975 20.74 2.67212 20.6773 2.67212C20.6146 2.67212 20.5532 2.68975 20.5 2.72299L1.01188 14.7671C0.963657 14.7973 0.923913 14.8392 0.8964 14.889C0.868887 14.9387 0.854512 14.9947 0.854634 15.0515V19.2737C0.854634 19.3624 0.889882 19.4475 0.952624 19.5102C1.01537 19.573 1.10046 19.6082 1.18919 19.6082H3.03931V37.7615H0.83456C0.745829 37.7615 0.660733 37.7967 0.59799 37.8595C0.535248 37.9222 0.5 38.0073 0.5 38.096C0.5 38.1848 0.535248 38.2699 0.59799 38.3326C0.660733 38.3953 0.745829 38.4306 0.83456 38.4306H8.42238C8.51111 38.4306 8.59621 38.3953 8.65895 38.3326C8.72169 38.2699 8.75694 38.1848 8.75694 38.096C8.75694 38.0073 8.72169 37.9222 8.65895 37.8595C8.59621 37.7967 8.51111 37.7615 8.42238 37.7615H6.98043V22.0706H34.3742V37.7615H30.2324C30.2932 37.6174 30.325 37.4628 30.326 37.3065V32.5959C30.3289 31.8557 30.2161 31.1197 29.9915 30.4145L29.8811 30.08C30.6505 29.8675 31.102 29.0716 30.8896 28.3021C30.8025 27.9867 30.611 27.7102 30.3464 27.5178C30.0817 27.3254 29.7596 27.2285 29.4328 27.2429H28.4491C28.2785 26.7912 27.4455 24.7036 26.2611 23.6531C26.2001 23.5993 26.1216 23.5695 26.0403 23.5694H15.3143C15.233 23.5695 15.1545 23.5993 15.0935 23.6531C13.8991 24.7036 13.0862 26.7912 12.9055 27.2429H11.9219C11.1237 27.2427 10.4765 27.8897 10.4763 28.6879C10.4763 28.9953 10.5742 29.2948 10.756 29.5427C10.9377 29.7906 11.1938 29.9741 11.487 30.0666L11.3732 30.4011C11.1486 31.1064 11.0357 31.8424 11.0386 32.5825V37.2663C11.0237 37.868 11.4976 38.3689 12.0992 38.3871H14.6619C15.2636 38.3689 15.7375 37.868 15.7225 37.2663V36.644H25.6422V37.2663C25.6272 37.868 26.1011 38.3689 26.7027 38.3871H39.9614C40.0501 38.3871 40.1352 38.3518 40.1979 38.2891C40.2607 38.2264 40.2959 38.1413 40.2959 38.0525C40.2959 37.9638 40.2607 37.8787 40.1979 37.816C40.1352 37.7532 40.0501 37.718 39.9614 37.718H38.3153V19.6082H40.1654C40.2542 19.6082 40.3393 19.573 40.402 19.5102C40.4648 19.4475 40.5 19.3624 40.5 19.2737V15.0515C40.5001 14.9947 40.4857 14.9387 40.4582 14.889C40.4307 14.8392 40.391 14.7973 40.3428 14.7671ZM15.4448 24.2519V24.2319H25.9098C26.7897 25.0683 27.4655 26.5738 27.7298 27.2429H13.6248C13.8891 26.6039 14.5649 25.0883 15.4448 24.2519ZM15.0333 37.3065C15.0398 37.4179 15.0025 37.5275 14.9294 37.6119C14.8563 37.6962 14.7531 37.7487 14.6419 37.7581H12.0892C11.9779 37.7487 11.8747 37.6962 11.8016 37.6119C11.7285 37.5275 11.6912 37.4179 11.6977 37.3065V36.6842H15.0433L15.0333 37.3065ZM29.6469 37.3065C29.6534 37.4179 29.6161 37.5275 29.543 37.6119C29.4699 37.6962 29.3667 37.7487 29.2554 37.7581H26.7027C26.5915 37.7487 26.4883 37.6962 26.4152 37.6119C26.3421 37.5275 26.3048 37.4179 26.3113 37.3065H26.3013V36.6842H29.6469V37.3065ZM29.6569 36.0284H11.6977V34.2687H14.5883C15.2084 34.2668 15.7106 33.7646 15.7124 33.1445V32.3282C15.7106 31.7087 15.2078 31.2074 14.5883 31.2074H11.855C11.898 31.0135 11.9494 30.8215 12.0089 30.632L12.2297 29.9629L12.8419 28.8822C12.8639 28.844 12.8781 28.8018 12.8838 28.7581C12.8894 28.7144 12.8864 28.67 12.875 28.6274C12.8635 28.5849 12.8437 28.545 12.8168 28.5101C12.7899 28.4751 12.7564 28.4459 12.7181 28.4239C12.6799 28.4019 12.6377 28.3877 12.594 28.382C12.5503 28.3764 12.5059 28.3794 12.4633 28.3909C12.4208 28.4024 12.3809 28.4221 12.346 28.449C12.311 28.4759 12.2818 28.5095 12.2598 28.5477L11.7412 29.4677C11.5678 29.4294 11.4127 29.3328 11.3019 29.194C11.1911 29.0552 11.1312 28.8825 11.1323 28.7049C11.1305 28.6006 11.1497 28.4969 11.1887 28.4002C11.2277 28.3034 11.2857 28.2154 11.3594 28.1414C11.433 28.0675 11.5207 28.0091 11.6173 27.9697C11.714 27.9303 11.8175 27.9107 11.9219 27.912H29.4328C29.6249 27.9099 29.8111 27.9789 29.9555 28.1057C30.0999 28.2325 30.1924 28.4081 30.2152 28.5989C30.238 28.7898 30.1896 28.9823 30.0791 29.1395C29.9686 29.2968 29.804 29.4077 29.6168 29.451L29.0948 28.5276C29.0505 28.4504 28.9773 28.394 28.8913 28.3708C28.8054 28.3476 28.7137 28.3595 28.6365 28.4038C28.5593 28.4482 28.5029 28.5214 28.4797 28.6074C28.4565 28.6933 28.4683 28.785 28.5127 28.8622L29.125 29.9428L29.3458 30.6119C29.4053 30.8014 29.4566 30.9934 29.4997 31.1874H26.7663C26.1468 31.1874 25.644 31.6886 25.6422 32.3081V33.1111C25.6255 33.7335 26.1167 34.2516 26.7391 34.2682C26.7482 34.2685 26.7573 34.2686 26.7663 34.2687H29.6569V36.0284ZM11.7446 31.8766H14.5783C14.6376 31.8761 14.6964 31.8874 14.7514 31.9097C14.8064 31.9319 14.8564 31.9648 14.8986 32.0065C14.9409 32.0481 14.9745 32.0976 14.9976 32.1523C15.0207 32.2069 15.0329 32.2656 15.0333 32.3249V33.1312C15.0369 33.2518 14.9924 33.3689 14.9096 33.4567C14.8269 33.5445 14.7126 33.5959 14.592 33.5995L14.5883 33.5995H11.6977V32.5959C11.7002 32.3554 11.7159 32.1153 11.7446 31.8766ZM29.6569 33.5995H26.7663C26.6456 33.5995 26.5299 33.5516 26.4446 33.4663C26.3592 33.3809 26.3113 33.2652 26.3113 33.1445V32.3282C26.3113 32.2084 26.3589 32.0935 26.4436 32.0088C26.5283 31.9241 26.6432 31.8766 26.763 31.8766H29.6101C29.6388 32.1153 29.6544 32.3554 29.6569 32.5959V33.5995ZM5.42138 16.9318V15.4697H35.9333V16.9318H5.42138ZM34.3742 21.4015H6.98043V19.8525H34.3742V21.4015ZM34.3742 19.1833H6.98043V17.6009H34.3742V19.1833ZM39.8309 18.9391H37.9808C37.892 18.9391 37.8069 18.9744 37.7442 19.0371C37.6814 19.0998 37.6462 19.1849 37.6462 19.2737V37.7615H35.0433V17.6009H36.2678C36.3565 17.6009 36.4416 17.5656 36.5044 17.5029C36.5671 17.4401 36.6024 17.355 36.6024 17.2663V15.1352C36.6024 15.0464 36.5671 14.9613 36.5044 14.8986C36.4416 14.8359 36.3565 14.8006 36.2678 14.8006H5.08682C4.99809 14.8006 4.91299 14.8359 4.85025 14.8986C4.78751 14.9613 4.75226 15.0464 4.75226 15.1352V17.2663C4.75226 17.355 4.78751 17.4401 4.85025 17.5029C4.91299 17.5656 4.99809 17.6009 5.08682 17.6009H6.31131V37.7615H3.70843V19.2737C3.70843 19.1849 3.67318 19.0998 3.61044 19.0371C3.5477 18.9744 3.4626 18.9391 3.37387 18.9391H1.52375V15.2355L20.6773 3.3988L39.8309 15.2355V18.9391Z" fill="black"/>
</g>
</g>
</g>
<defs>
<clipPath id="clip0_1_1919">
<rect width="40" height="40" fill="white" transform="translate(0.5 0.55127)"/>
</clipPath>
<clipPath id="clip1_1_1919">
<rect width="40" height="40" fill="white" transform="translate(0.5 0.55127)"/>
</clipPath>
<clipPath id="clip2_1_1919">
<rect width="40" height="40" fill="white" transform="translate(0.5 0.55127)"/>
</clipPath>
</defs>
</svg>
