<svg width="41" height="41" viewBox="0 0 41 41" fill="none" xmlns="http://www.w3.org/2000/svg">
<g clip-path="url(#clip0_1_1882)">
<g clip-path="url(#clip1_1_1882)">
<g clip-path="url(#clip2_1_1882)">
<path d="M17.4648 9.1882L12.6214 5.41246V1.09966C12.6214 1.01334 12.5871 0.930547 12.5261 0.869505C12.465 0.808463 12.3822 0.77417 12.2959 0.77417C12.2096 0.77417 12.1268 0.808463 12.0658 0.869505C12.0047 0.930547 11.9704 1.01334 11.9704 1.09966V5.57847C11.9705 5.62818 11.982 5.6772 12.0041 5.72177C12.0261 5.76634 12.058 5.80528 12.0974 5.83561L16.3841 9.17518H13.7574C13.6711 9.17518 13.5883 9.20947 13.5272 9.27051C13.4662 9.33156 13.4319 9.41435 13.4319 9.50067C13.4319 9.587 13.4662 9.66979 13.5272 9.73083C13.5883 9.79187 13.6711 9.82617 13.7574 9.82617H16.9375V11.0923H1.15099V9.82617H12.1169C12.2032 9.82617 12.286 9.79187 12.3471 9.73083C12.4081 9.66979 12.4424 9.587 12.4424 9.50067C12.4424 9.41435 12.4081 9.33156 12.3471 9.27051C12.286 9.20947 12.2032 9.17518 12.1169 9.17518H1.70108L5.9911 5.83561C6.03048 5.80528 6.06241 5.76634 6.08441 5.72177C6.10641 5.6772 6.11792 5.62818 6.11804 5.57847V1.09966C6.11804 1.01334 6.08374 0.930547 6.0227 0.869505C5.96166 0.808463 5.87887 0.77417 5.79254 0.77417C5.70622 0.77417 5.62343 0.808463 5.56238 0.869505C5.50134 0.930547 5.46705 1.01334 5.46705 1.09966V5.41246L0.623693 9.1882C0.584896 9.21885 0.553593 9.25793 0.532162 9.30249C0.51073 9.34704 0.499733 9.3959 0.500005 9.44534V11.4178C0.500005 11.5042 0.534298 11.587 0.59534 11.648C0.656382 11.709 0.739173 11.7433 0.825499 11.7433H17.263C17.3493 11.7433 17.4321 11.709 17.4931 11.648C17.5542 11.587 17.5885 11.5042 17.5885 11.4178V9.44534C17.5887 9.3959 17.5777 9.34704 17.5563 9.30249C17.5349 9.25793 17.5036 9.21885 17.4648 9.1882Z" fill="black"/>
<path d="M2.24474 10.1746H2.20568C2.12025 10.1759 2.03878 10.2108 1.97885 10.2717C1.91892 10.3326 1.88533 10.4146 1.88533 10.5C1.88533 10.5854 1.91892 10.6675 1.97885 10.7283C2.03878 10.7892 2.12025 10.8241 2.20568 10.8255H2.24474C2.33016 10.8241 2.41163 10.7892 2.47156 10.7283C2.53149 10.6675 2.56509 10.5854 2.56509 10.5C2.56509 10.4146 2.53149 10.3326 2.47156 10.2717C2.41163 10.2108 2.33016 10.1759 2.24474 10.1746ZM3.54346 10.1746H3.5044C3.41898 10.1759 3.33751 10.2108 3.27758 10.2717C3.21764 10.3326 3.18405 10.4146 3.18405 10.5C3.18405 10.5854 3.21764 10.6675 3.27758 10.7283C3.33751 10.7892 3.41898 10.8241 3.5044 10.8255H3.54346C3.62888 10.8241 3.71035 10.7892 3.77028 10.7283C3.83022 10.6675 3.86381 10.5854 3.86381 10.5C3.86381 10.4146 3.83022 10.3326 3.77028 10.2717C3.71035 10.2108 3.62888 10.1759 3.54346 10.1746ZM17.1752 17.228H0.900446C0.814119 17.228 0.731328 17.2623 0.670286 17.3234C0.609244 17.3844 0.574951 17.4672 0.574951 17.5535V38.9092C0.574951 38.9955 0.609244 39.0783 0.670286 39.1394C0.731328 39.2004 0.814119 39.2347 0.900446 39.2347H17.1752C17.2615 39.2347 17.3443 39.2004 17.4053 39.1394C17.4664 39.0783 17.5007 38.9955 17.5007 38.9092V17.5535C17.5007 17.4672 17.4664 17.3844 17.4053 17.3234C17.3443 17.2623 17.2615 17.228 17.1752 17.228ZM1.22594 17.879H16.8497V21.7426H1.22594V17.879ZM16.8497 38.5837H1.22594V35.0879H16.8497V38.5837ZM16.8497 34.4369H1.22594V33.0926H6.05302V33.4181C6.05302 33.5044 6.08731 33.5872 6.14836 33.6483C6.2094 33.7093 6.29219 33.7436 6.37852 33.7436H11.7101C11.7964 33.7436 11.8792 33.7093 11.9403 33.6483C12.0013 33.5872 12.0356 33.5044 12.0356 33.4181V33.0926H16.8497V34.4369ZM16.8497 32.4416H11.7101C11.6238 32.4416 11.541 32.4759 11.48 32.537C11.4189 32.598 11.3846 32.6808 11.3846 32.7671V33.0926H6.70401V32.7671C6.70401 32.6808 6.66972 32.598 6.60868 32.537C6.54763 32.4759 6.46484 32.4416 6.37852 32.4416H1.23896V22.3936H16.8627L16.8497 32.4416Z" fill="black"/>
<path d="M14.7728 23.4938H3.31543C3.2291 23.4938 3.14631 23.528 3.08527 23.5891C3.02423 23.6501 2.98994 23.7329 2.98994 23.8193C2.98994 23.9056 3.02423 23.9884 3.08527 24.0494C3.14631 24.1105 3.2291 24.1447 3.31543 24.1447H14.7728C14.8592 24.1447 14.9419 24.1105 15.003 24.0494C15.064 23.9884 15.0983 23.9056 15.0983 23.8193C15.0983 23.7329 15.064 23.6501 15.003 23.5891C14.9419 23.528 14.8592 23.4938 14.7728 23.4938ZM3.71579 18.849C3.20883 18.849 2.79789 19.2599 2.79789 19.7668C2.7961 20.272 3.20411 20.6829 3.70928 20.6847H3.71579C4.22275 20.6847 4.63368 20.2738 4.63368 19.7668C4.63368 19.2599 4.22275 18.849 3.71579 18.849ZM3.71579 20.0337C3.645 20.0337 3.57711 20.0056 3.52706 19.9556C3.477 19.9055 3.44888 19.8376 3.44888 19.7668C3.44888 19.6961 3.477 19.6282 3.52706 19.5781C3.57711 19.5281 3.645 19.4999 3.71579 19.4999C3.78658 19.4999 3.85446 19.5281 3.90452 19.5781C3.95457 19.6282 3.98269 19.6961 3.98269 19.7668C3.98269 19.8376 3.95457 19.9055 3.90452 19.9556C3.85446 20.0056 3.78658 20.0337 3.71579 20.0337ZM7.26693 18.849C6.75997 18.849 6.34904 19.2599 6.34904 19.7668C6.34904 20.2738 6.75997 20.6847 7.26693 20.6847C7.77389 20.6847 8.18483 20.2738 8.18483 19.7668C8.18483 19.2599 7.77389 18.849 7.26693 18.849ZM7.26693 20.0337C7.19614 20.0337 7.12825 20.0056 7.0782 19.9556C7.02815 19.9055 7.00003 19.8376 7.00003 19.7668C7.00003 19.6961 7.02815 19.6282 7.0782 19.5781C7.12825 19.5281 7.19614 19.4999 7.26693 19.4999C7.33772 19.4999 7.40561 19.5281 7.45566 19.5781C7.50572 19.6282 7.53384 19.6961 7.53384 19.7668C7.53384 19.8376 7.50572 19.9055 7.45566 19.9556C7.40561 20.0056 7.33772 20.0337 7.26693 20.0337ZM10.8213 18.849C10.3144 18.849 9.90344 19.2599 9.90344 19.7668C9.90344 20.2738 10.3144 20.6847 10.8213 20.6847C11.3283 20.6847 11.7392 20.2738 11.7392 19.7668C11.7392 19.2599 11.3283 18.849 10.8213 18.849ZM10.8213 20.0337C10.7505 20.0337 10.6827 20.0056 10.6326 19.9556C10.5825 19.9055 10.5544 19.8376 10.5544 19.7668C10.5544 19.6961 10.5825 19.6282 10.6326 19.5781C10.6827 19.5281 10.7505 19.4999 10.8213 19.4999C10.8921 19.4999 10.96 19.5281 11.0101 19.5781C11.0601 19.6282 11.0882 19.6961 11.0882 19.7668C11.0882 19.8376 11.0601 19.9055 11.0101 19.9556C10.96 20.0056 10.8921 20.0337 10.8213 20.0337ZM14.3757 18.849C13.8688 18.849 13.4578 19.2599 13.4578 19.7668C13.456 20.272 13.864 20.6829 14.3692 20.6847H14.3757C14.8827 20.6847 15.2936 20.2738 15.2936 19.7668C15.2936 19.2599 14.8827 18.849 14.3757 18.849ZM14.3757 20.0337C14.3049 20.0337 14.2371 20.0056 14.187 19.9556C14.1369 19.9055 14.1088 19.8376 14.1088 19.7668C14.1088 19.6961 14.1369 19.6282 14.187 19.5781C14.2371 19.5281 14.3049 19.4999 14.3757 19.4999C14.4465 19.4999 14.5144 19.5281 14.5645 19.5781C14.6145 19.6282 14.6426 19.6961 14.6426 19.7668C14.6426 19.8376 14.6145 19.9055 14.5645 19.9556C14.5144 20.0056 14.4465 20.0337 14.3757 20.0337ZM15.4466 39.6773H14.4148C14.3285 39.6773 14.2457 39.7116 14.1846 39.7727C14.1236 39.8337 14.0893 39.9165 14.0893 40.0028C14.0893 40.0892 14.1236 40.1719 14.1846 40.233C14.2457 40.294 14.3285 40.3283 14.4148 40.3283H15.4466C15.5329 40.3283 15.6157 40.294 15.6768 40.233C15.7378 40.1719 15.7721 40.0892 15.7721 40.0028C15.7721 39.9165 15.7378 39.8337 15.6768 39.7727C15.6157 39.7116 15.5329 39.6773 15.4466 39.6773ZM3.67347 39.6773H2.64166C2.55533 39.6773 2.47254 39.7116 2.4115 39.7727C2.35046 39.8337 2.31616 39.9165 2.31616 40.0028C2.31616 40.0892 2.35046 40.1719 2.4115 40.233C2.47254 40.294 2.55533 40.3283 2.64166 40.3283H3.67347C3.7598 40.3283 3.84259 40.294 3.90363 40.233C3.96467 40.1719 3.99897 40.0892 3.99897 40.0028C3.99897 39.9165 3.96467 39.8337 3.90363 39.7727C3.84259 39.7116 3.7598 39.6773 3.67347 39.6773ZM40.1744 5.50043H28.6552C28.6335 5.49856 28.6117 5.49856 28.5901 5.50043C28.5684 5.49888 28.5466 5.49888 28.525 5.50043H19.2126C19.1262 5.50043 19.0435 5.53472 18.9824 5.59576C18.9214 5.6568 18.8871 5.7396 18.8871 5.82592V39.9833C18.8871 40.0696 18.9214 40.1524 18.9824 40.2135C19.0435 40.2745 19.1262 40.3088 19.2126 40.3088H40.1744C40.2607 40.3088 40.3435 40.2745 40.4046 40.2135C40.4656 40.1524 40.4999 40.0696 40.4999 39.9833V5.82592C40.4999 5.7396 40.4656 5.6568 40.4046 5.59576C40.3435 5.53472 40.2607 5.50043 40.1744 5.50043ZM19.5381 6.15142H28.2646V38.3168H19.5381V6.15142ZM39.8489 39.6578H19.5381V38.9678H39.8489V39.6578ZM39.8489 38.3168H28.9156V6.15142H39.8489V38.3168Z" fill="black"/>
<path d="M26.7283 18.0678H20.928C20.8417 18.0678 20.7589 18.1021 20.6979 18.1631C20.6368 18.2242 20.6025 18.3069 20.6025 18.3933V24.148C20.6025 24.2343 20.6368 24.3171 20.6979 24.3782C20.7589 24.4392 20.8417 24.4735 20.928 24.4735H26.7283C26.8147 24.4735 26.8975 24.4392 26.9585 24.3782C27.0195 24.3171 27.0538 24.2343 27.0538 24.148V18.3933C27.0538 18.3069 27.0195 18.2242 26.9585 18.1631C26.8975 18.1021 26.8147 18.0678 26.7283 18.0678ZM26.4028 23.8225H21.2535V20.4439H21.7483V21.7068C21.7483 21.7931 21.7826 21.8759 21.8436 21.937C21.9047 21.998 21.9874 22.0323 22.0738 22.0323H23.2325C23.3189 22.0323 23.4016 21.998 23.4627 21.937C23.5237 21.8759 23.558 21.7931 23.558 21.7068V20.4439H24.0886V21.7068C24.0886 21.7931 24.1229 21.8759 24.1839 21.937C24.245 21.998 24.3278 22.0323 24.4141 22.0323H25.5728C25.6592 22.0323 25.742 21.998 25.803 21.937C25.864 21.8759 25.8983 21.7931 25.8983 21.7068V20.4439H26.4028V23.8225ZM22.3993 21.3813V20.4439H22.907V21.3813H22.3993ZM24.7396 21.3813V20.4439H25.2473V21.3813H24.7396ZM26.4028 19.7929H21.2535V18.7188H26.4028V19.7929ZM31.0704 10.1648L30.094 9.51379C30.0219 9.46588 29.9337 9.44856 29.8489 9.46566C29.764 9.48275 29.6894 9.53285 29.6415 9.60493C29.5936 9.67701 29.5763 9.76517 29.5934 9.85002C29.6105 9.93487 29.6606 10.0095 29.7327 10.0574L30.5627 10.6205V35.0651C30.5627 35.1514 30.597 35.2342 30.658 35.2953C30.719 35.3563 30.8018 35.3906 30.8882 35.3906C30.9745 35.3906 31.0573 35.3563 31.1183 35.2953C31.1794 35.2342 31.2137 35.1514 31.2137 35.0651V10.4382C31.2143 10.3843 31.2015 10.3311 31.1765 10.2834C31.1515 10.2357 31.1151 10.1949 31.0704 10.1648Z" fill="black"/>
</g>
</g>
</g>
<defs>
<clipPath id="clip0_1_1882">
<rect width="40" height="40" fill="white" transform="translate(0.5 0.55127)"/>
</clipPath>
<clipPath id="clip1_1_1882">
<rect width="40" height="40" fill="white" transform="translate(0.5 0.55127)"/>
</clipPath>
<clipPath id="clip2_1_1882">
<rect width="40" height="40" fill="white" transform="translate(0.5 0.55127)"/>
</clipPath>
</defs>
</svg>
