<svg width="41" height="41" viewBox="0 0 41 41" fill="none" xmlns="http://www.w3.org/2000/svg">
<g clip-path="url(#clip0_1_1907)">
<g clip-path="url(#clip1_1_1907)">
<g clip-path="url(#clip2_1_1907)">
<path d="M36.0738 30.5333L36.0672 30.5332C35.9807 30.5332 35.8976 30.5676 35.8364 30.6288C35.7752 30.69 35.7408 30.7731 35.7408 30.8596C35.7426 33.2772 33.7843 35.2384 31.3667 35.2402H30.7139C30.6273 35.2402 30.5443 35.2746 30.4831 35.3358C30.4218 35.3971 30.3875 35.4801 30.3875 35.5667C30.3875 35.6532 30.4218 35.7363 30.4831 35.7975C30.5443 35.8587 30.6273 35.8931 30.7139 35.8931H31.3667C34.1415 35.8895 36.3901 33.6409 36.3937 30.8662C36.3954 30.7796 36.3627 30.6959 36.3027 30.6335C36.2427 30.5711 36.1604 30.535 36.0738 30.5333ZM29.2384 35.2402H28.4485C28.3619 35.2402 28.2789 35.2746 28.2177 35.3358C28.1565 35.3971 28.1221 35.4801 28.1221 35.5667C28.1221 35.6532 28.1565 35.7363 28.2177 35.7975C28.2789 35.8587 28.3619 35.8931 28.4485 35.8931H29.2384C29.325 35.8931 29.408 35.8587 29.4693 35.7975C29.5305 35.7363 29.5649 35.6532 29.5649 35.5667C29.5649 35.4801 29.5305 35.3971 29.4693 35.3358C29.408 35.2746 29.325 35.2402 29.2384 35.2402Z" fill="black"/>
<path d="M38.9593 26.1821H29.3494L29.3821 26.1266L29.9664 25.5227C30.0099 25.4764 30.039 25.4183 30.05 25.3557C30.061 25.2931 30.0535 25.2286 30.0284 25.1702C30.0029 25.1118 29.9609 25.0621 29.9075 25.0273C29.8542 24.9925 29.7918 24.9741 29.7281 24.9743H22.4912C22.113 24.9757 21.7442 25.092 21.4335 25.3076C21.1228 25.5233 20.885 25.8282 20.7514 26.1821H2.3672V5.9438C2.369 3.32432 4.49394 1.20232 7.11341 1.20412H9.76724C12.2649 1.21293 14.3276 3.15728 14.4841 5.65001H13.5048C13.4296 5.65059 13.357 5.67711 13.2991 5.72509L9.30698 9.0285C9.25536 9.07148 9.21826 9.12934 9.20073 9.19419C9.18321 9.25903 9.18611 9.3277 9.20905 9.39083C9.23132 9.45453 9.27278 9.50976 9.32773 9.54893C9.38268 9.58809 9.44841 9.60927 9.51589 9.60954H20.0822C20.1497 9.60927 20.2154 9.58809 20.2704 9.54893C20.3253 9.50976 20.3668 9.45453 20.3891 9.39083C20.412 9.3277 20.4149 9.25903 20.3974 9.19419C20.3799 9.12934 20.3428 9.07148 20.2911 9.0285L16.2925 5.72509C16.2337 5.67643 16.1598 5.64986 16.0835 5.65001H15.1369C14.9794 2.79291 12.6189 0.555596 9.75744 0.551271H7.11667C4.1361 0.549475 1.71795 2.96322 1.71436 5.9438V30.2787C1.71917 34.1711 4.57203 37.4737 8.42237 38.0443L7.60957 40.1041C7.59033 40.1538 7.58353 40.2074 7.58979 40.2603C7.59605 40.3132 7.61517 40.3638 7.64548 40.4076C7.67511 40.4515 7.71495 40.4875 7.76158 40.5125C7.80821 40.5375 7.86023 40.5508 7.91315 40.5513H9.72807C9.79344 40.5513 9.85733 40.5318 9.91146 40.4951C9.96558 40.4584 10.0075 40.4064 10.0316 40.3456L10.9065 38.1259H30.1067L30.9815 40.3456C31.0057 40.4064 31.0476 40.4584 31.1017 40.4951C31.1558 40.5318 31.2197 40.5513 31.2851 40.5513H33.0772C33.1301 40.5508 33.1821 40.5375 33.2287 40.5125C33.2754 40.4875 33.3152 40.4515 33.3448 40.4076C33.3752 40.3638 33.3943 40.3132 33.4005 40.2603C33.4068 40.2074 33.4 40.1538 33.3807 40.1041L32.5777 38.0443C36.4281 37.4737 39.2809 34.1711 39.2858 30.2787V26.5085C39.2858 26.4219 39.2514 26.3389 39.1902 26.2777C39.1289 26.2165 39.0459 26.1821 38.9593 26.1821ZM15.9791 6.30286L19.1878 8.95669H10.4233L13.6452 6.30286H15.9791ZM21.2867 26.8349C21.2867 26.1697 21.826 25.6304 22.4912 25.6304H28.9577L28.8924 25.6957L28.8663 25.7251C28.6284 26.0462 28.5002 26.4353 28.5007 26.8349V33.445H27.1624V32.3352C27.1624 32.2486 27.128 32.1656 27.0668 32.1044C27.0055 32.0431 26.9225 32.0088 26.8359 32.0088C26.7494 32.0088 26.6663 32.0431 26.6051 32.1044C26.5439 32.1656 26.5095 32.2486 26.5095 32.3352V33.445H25.0863V32.3352C25.0863 32.2486 25.0519 32.1656 24.9907 32.1044C24.9295 32.0431 24.8465 32.0088 24.7599 32.0088C24.6733 32.0088 24.5903 32.0431 24.5291 32.1044C24.4679 32.1656 24.4335 32.2486 24.4335 32.3352V33.445H23.0103V32.3352C23.0103 32.2486 22.9759 32.1656 22.9146 32.1044C22.8534 32.0431 22.7704 32.0088 22.6838 32.0088C22.5973 32.0088 22.5142 32.0431 22.453 32.1044C22.3918 32.1656 22.3574 32.2486 22.3574 32.3352V33.445H21.2867V26.8349ZM2.3672 26.8349H20.6469L20.6339 27.8207C20.5913 27.8037 20.5459 27.7948 20.5001 27.7946H2.3672V26.8349ZM9.49304 39.8984H8.40278L9.10786 38.1096H10.1916L9.49304 39.8984ZM32.5973 39.8984H31.5071L30.8085 38.1259H31.8923L32.5973 39.8984ZM38.6199 30.2787C38.6163 34.2442 35.4073 37.4605 31.4418 37.4731H9.57138C5.60974 37.4623 2.40083 34.2534 2.39005 30.2918V28.4475H20.5001C20.5461 28.4462 20.5915 28.4362 20.6339 28.4181V33.7714C20.6339 33.858 20.6683 33.941 20.7295 34.0023C20.7907 34.0635 20.8737 34.0979 20.9603 34.0979H28.8271C28.9137 34.0979 28.9967 34.0635 29.0579 34.0023C29.1192 33.941 29.1536 33.858 29.1536 33.7714V28.4475H38.6199V30.2787ZM38.6329 27.7946H29.1666V26.8153C29.1899 26.8242 29.2139 26.8307 29.2384 26.8349H38.6329V27.7946Z" fill="black"/>
<path d="M19.9972 10.6411H9.60059C9.51402 10.6411 9.43099 10.6755 9.36978 10.7367C9.30856 10.7979 9.27417 10.881 9.27417 10.9675C9.27417 11.0541 9.30856 11.1371 9.36978 11.1984C9.43099 11.2596 9.51402 11.294 9.60059 11.294H19.9972C20.0838 11.294 20.1668 11.2596 20.228 11.1984C20.2892 11.1371 20.3236 11.0541 20.3236 10.9675C20.3236 10.881 20.2892 10.7979 20.228 10.7367C20.1668 10.6755 20.0838 10.6411 19.9972 10.6411ZM10.1979 12.962C10.1114 12.962 10.0283 12.9964 9.96713 13.0576C9.90592 13.1188 9.87153 13.2018 9.87153 13.2884V14.3003C9.87153 14.3869 9.90592 14.4699 9.96713 14.5311C10.0283 14.5924 10.1114 14.6267 10.1979 14.6267C10.2845 14.6267 10.3676 14.5924 10.4288 14.5311C10.49 14.4699 10.5244 14.3869 10.5244 14.3003V13.2884C10.5244 13.2018 10.49 13.1188 10.4288 13.0576C10.3676 12.9964 10.2845 12.962 10.1979 12.962ZM10.1979 19.9964C10.1114 19.9964 10.0283 20.0308 9.96713 20.092C9.90592 20.1532 9.87153 20.2363 9.87153 20.3228V21.6579C9.87153 21.7445 9.90592 21.8275 9.96713 21.8887C10.0283 21.95 10.1114 21.9843 10.1979 21.9843C10.2845 21.9843 10.3676 21.95 10.4288 21.8887C10.49 21.8275 10.5244 21.7445 10.5244 21.6579V20.3228C10.5244 20.2363 10.49 20.1532 10.4288 20.092C10.3676 20.0308 10.2845 19.9964 10.1979 19.9964ZM10.1979 16.6571C10.1114 16.6571 10.0283 16.6915 9.96713 16.7527C9.90592 16.8139 9.87153 16.897 9.87153 16.9835V17.3687C9.87153 17.4553 9.90592 17.5383 9.96713 17.5995C10.0283 17.6607 10.1114 17.6951 10.1979 17.6951C10.2845 17.6951 10.3676 17.6607 10.4288 17.5995C10.49 17.5383 10.5244 17.4553 10.5244 17.3687V16.9835C10.5244 16.897 10.49 16.8139 10.4288 16.7527C10.3676 16.6915 10.2845 16.6571 10.1979 16.6571ZM10.1979 23.0844C10.1114 23.0844 10.0283 23.1188 9.96713 23.18C9.90592 23.2412 9.87153 23.3242 9.87153 23.4108V23.8156C9.87153 23.9022 9.90592 23.9852 9.96713 24.0464C10.0283 24.1076 10.1114 24.142 10.1979 24.142C10.2845 24.142 10.3676 24.1076 10.4288 24.0464C10.49 23.9852 10.5244 23.9022 10.5244 23.8156V23.4108C10.5244 23.3242 10.49 23.2412 10.4288 23.18C10.3676 23.1188 10.2845 23.0844 10.1979 23.0844ZM12.4992 16.0304C12.4127 16.0304 12.3296 16.0648 12.2684 16.126C12.2072 16.1872 12.1728 16.2702 12.1728 16.3568V18.1228C12.1728 18.2093 12.2072 18.2924 12.2684 18.3536C12.3296 18.4148 12.4127 18.4492 12.4992 18.4492C12.5858 18.4492 12.6688 18.4148 12.7301 18.3536C12.7913 18.2924 12.8257 18.2093 12.8257 18.1228V16.3568C12.8257 16.2702 12.7913 16.1872 12.7301 16.126C12.6688 16.0648 12.5858 16.0304 12.4992 16.0304ZM12.4992 12.962C12.4127 12.962 12.3296 12.9964 12.2684 13.0576C12.2072 13.1188 12.1728 13.2018 12.1728 13.2884V13.6736C12.1728 13.7602 12.2072 13.8432 12.2684 13.9044C12.3296 13.9656 12.4127 14 12.4992 14C12.5858 14 12.6688 13.9656 12.7301 13.9044C12.7913 13.8432 12.8257 13.7602 12.8257 13.6736V13.2884C12.8257 13.2018 12.7913 13.1188 12.7301 13.0576C12.6688 12.9964 12.5858 12.962 12.4992 12.962ZM12.4992 19.4578C12.4127 19.4578 12.3296 19.4922 12.2684 19.5534C12.2072 19.6146 12.1728 19.6977 12.1728 19.7842V20.1727C12.1728 20.2593 12.2072 20.3423 12.2684 20.4035C12.3296 20.4647 12.4127 20.4991 12.4992 20.4991C12.5858 20.4991 12.6688 20.4647 12.7301 20.4035C12.7913 20.3423 12.8257 20.2593 12.8257 20.1727V19.7842C12.8257 19.6977 12.7913 19.6146 12.7301 19.5534C12.6688 19.4922 12.5858 19.4578 12.4992 19.4578ZM12.4992 23.2541C12.4127 23.2541 12.3296 23.2885 12.2684 23.3497C12.2072 23.411 12.1728 23.494 12.1728 23.5806V23.969C12.1728 24.0556 12.2072 24.1386 12.2684 24.1998C12.3296 24.261 12.4127 24.2954 12.4992 24.2954C12.5858 24.2954 12.6688 24.261 12.7301 24.1998C12.7913 24.1386 12.8257 24.0556 12.8257 23.969V23.5806C12.8257 23.494 12.7913 23.411 12.7301 23.3497C12.6688 23.2885 12.5858 23.2541 12.4992 23.2541ZM17.0986 12.962C17.012 12.962 16.929 12.9964 16.8677 13.0576C16.8065 13.1188 16.7721 13.2018 16.7721 13.2884V13.8042C16.7721 13.8907 16.8065 13.9738 16.8677 14.035C16.929 14.0962 17.012 14.1306 17.0986 14.1306C17.1851 14.1306 17.2682 14.0962 17.3294 14.035C17.3906 13.9738 17.425 13.8907 17.425 13.8042V13.2884C17.425 13.2018 17.3906 13.1188 17.3294 13.0576C17.2682 12.9964 17.1851 12.962 17.0986 12.962ZM17.0986 23.9951C17.012 23.9951 16.929 24.0295 16.8677 24.0907C16.8065 24.1519 16.7721 24.235 16.7721 24.3215V24.8373C16.7721 24.9239 16.8065 25.0069 16.8677 25.0681C16.929 25.1293 17.012 25.1637 17.0986 25.1637C17.1851 25.1637 17.2682 25.1293 17.3294 25.0681C17.3906 25.0069 17.425 24.9239 17.425 24.8373V24.3215C17.425 24.235 17.3906 24.1519 17.3294 24.0907C17.2682 24.0295 17.1851 23.9951 17.0986 23.9951ZM17.0986 19.1869C17.012 19.1869 16.929 19.2213 16.8677 19.2825C16.8065 19.3437 16.7721 19.4267 16.7721 19.5133V20.362C16.7721 20.4486 16.8065 20.5316 16.8677 20.5928C16.929 20.6541 17.012 20.6884 17.0986 20.6884C17.1851 20.6884 17.2682 20.6541 17.3294 20.5928C17.3906 20.5316 17.425 20.4486 17.425 20.362V19.5133C17.425 19.4267 17.3906 19.3437 17.3294 19.2825C17.2682 19.2213 17.1851 19.1869 17.0986 19.1869ZM17.0986 15.8476C17.012 15.8476 16.929 15.882 16.8677 15.9432C16.8065 16.0044 16.7721 16.0874 16.7721 16.174V17.4144C16.7721 17.501 16.8065 17.584 16.8677 17.6452C16.929 17.7064 17.012 17.7408 17.0986 17.7408C17.1851 17.7408 17.2682 17.7064 17.3294 17.6452C17.3906 17.584 17.425 17.501 17.425 17.4144V16.174C17.425 16.0874 17.3906 16.0044 17.3294 15.9432C17.2682 15.882 17.1851 15.8476 17.0986 15.8476ZM19.3998 12.962C19.3133 12.962 19.2302 12.9964 19.169 13.0576C19.1078 13.1188 19.0734 13.2018 19.0734 13.2884V14.16C19.0734 14.2465 19.1078 14.3296 19.169 14.3908C19.2302 14.452 19.3133 14.4864 19.3998 14.4864C19.4864 14.4864 19.5694 14.452 19.6307 14.3908C19.6919 14.3296 19.7263 14.2465 19.7263 14.16V13.2884C19.7263 13.2018 19.6919 13.1188 19.6307 13.0576C19.5694 12.9964 19.4864 12.962 19.3998 12.962ZM19.3998 17.0292C19.3133 17.0292 19.2302 17.0636 19.169 17.1248C19.1078 17.1861 19.0734 17.2691 19.0734 17.3557V17.7408C19.0734 17.8274 19.1078 17.9104 19.169 17.9717C19.2302 18.0329 19.3133 18.0673 19.3998 18.0673C19.4864 18.0673 19.5694 18.0329 19.6307 17.9717C19.6919 17.9104 19.7263 17.8274 19.7263 17.7408V17.3557C19.7263 17.2691 19.6919 17.1861 19.6307 17.1248C19.5694 17.0636 19.4864 17.0292 19.3998 17.0292ZM19.3998 23.1627C19.3133 23.1627 19.2302 23.1971 19.169 23.2583C19.1078 23.3196 19.0734 23.4026 19.0734 23.4892V23.8743C19.0734 23.9609 19.1078 24.0439 19.169 24.1052C19.2302 24.1664 19.3133 24.2008 19.3998 24.2008C19.4864 24.2008 19.5694 24.1664 19.6307 24.1052C19.6919 24.0439 19.7263 23.9609 19.7263 23.8743V23.4892C19.7263 23.4026 19.6919 23.3196 19.6307 23.2583C19.5694 23.1971 19.4864 23.1627 19.3998 23.1627ZM19.3998 19.6765C19.3133 19.6765 19.2302 19.7109 19.169 19.7721C19.1078 19.8334 19.0734 19.9164 19.0734 20.003V21.165C19.0734 21.2516 19.1078 21.3346 19.169 21.3958C19.2302 21.4571 19.3133 21.4914 19.3998 21.4914C19.4864 21.4914 19.5694 21.4571 19.6307 21.3958C19.6919 21.3346 19.7263 21.2516 19.7263 21.165V20.003C19.7263 19.9164 19.6919 19.8334 19.6307 19.7721C19.5694 19.7109 19.4864 19.6765 19.3998 19.6765ZM14.8005 20.7798C14.714 20.7798 14.6309 20.8142 14.5697 20.8755C14.5085 20.9367 14.4741 21.0197 14.4741 21.1063V21.9746C14.4741 22.0611 14.5085 22.1442 14.5697 22.2054C14.6309 22.2666 14.714 22.301 14.8005 22.301C14.8871 22.301 14.9701 22.2666 15.0313 22.2054C15.0926 22.1442 15.127 22.0611 15.127 21.9746V21.1063C15.127 21.0197 15.0926 20.9367 15.0313 20.8755C14.9701 20.8142 14.8871 20.7798 14.8005 20.7798ZM14.8005 16.7452C14.714 16.7452 14.6309 16.7796 14.5697 16.8408C14.5085 16.9021 14.4741 16.9851 14.4741 17.0717V17.4568C14.4741 17.5434 14.5085 17.6264 14.5697 17.6877C14.6309 17.7489 14.714 17.7833 14.8005 17.7833C14.8871 17.7833 14.9701 17.7489 15.0313 17.6877C15.0926 17.6264 15.127 17.5434 15.127 17.4568V17.0717C15.127 16.9851 15.0926 16.9021 15.0313 16.8408C14.9701 16.7796 14.8871 16.7452 14.8005 16.7452ZM14.8005 12.962C14.714 12.962 14.6309 12.9964 14.5697 13.0576C14.5085 13.1188 14.4741 13.2018 14.4741 13.2884V14.4505C14.4741 14.5371 14.5085 14.6201 14.5697 14.6813C14.6309 14.7425 14.714 14.7769 14.8005 14.7769C14.8871 14.7769 14.9701 14.7425 15.0313 14.6813C15.0926 14.6201 15.127 14.5371 15.127 14.4505V13.2884C15.127 13.2018 15.0926 13.1188 15.0313 13.0576C14.9701 12.9964 14.8871 12.962 14.8005 12.962Z" fill="black"/>
</g>
</g>
</g>
<defs>
<clipPath id="clip0_1_1907">
<rect width="40" height="40" fill="white" transform="translate(0.5 0.55127)"/>
</clipPath>
<clipPath id="clip1_1_1907">
<rect width="40" height="40" fill="white" transform="translate(0.5 0.55127)"/>
</clipPath>
<clipPath id="clip2_1_1907">
<rect width="40" height="40" fill="white" transform="translate(0.5 0.55127)"/>
</clipPath>
</defs>
</svg>
