<svg width="41" height="41" viewBox="0 0 41 41" fill="none" xmlns="http://www.w3.org/2000/svg">
<g clip-path="url(#clip0_1_1930)">
<g clip-path="url(#clip1_1_1930)">
<g clip-path="url(#clip2_1_1930)">
<path d="M39.3787 9.80678L39.3689 9.80686H38.429V7.32104C38.429 7.23508 38.3949 7.15265 38.3341 7.09187C38.2733 7.03109 38.1909 6.99694 38.1049 6.99694H34.7927V1.06921C34.7927 0.983258 34.7585 0.900823 34.6977 0.840043C34.637 0.779263 34.5545 0.745117 34.4686 0.745117H4.51557C4.42961 0.745117 4.34717 0.779263 4.28639 0.840043C4.22561 0.900823 4.19147 0.983258 4.19147 1.06921V32.9992H4.091C2.05648 33.0511 0.449288 34.7425 0.501224 36.777C0.546841 38.5644 1.86907 40.0613 3.63726 40.327C3.67899 40.346 3.72429 40.356 3.77014 40.3562H30.4951C30.5135 40.3577 30.5319 40.3577 30.5502 40.3562H30.7641C32.7509 40.3562 34.8024 39.0047 34.8024 36.7458V16.4411L39.6185 15.3878C39.8675 15.3327 40.0904 15.1946 40.2505 14.9961C40.4107 14.7976 40.4987 14.5506 40.5 14.2956V10.9282C40.5001 10.3089 39.998 9.80686 39.3787 9.80678ZM4.07479 39.721C2.39759 39.7217 1.03736 38.3628 1.03663 36.6856C1.0359 35.0084 2.39484 33.6481 4.07204 33.6474H28.677C26.9998 34.7907 26.567 37.0772 27.7103 38.7544C27.9693 39.1342 28.2971 39.4621 28.677 39.721H4.07479ZM34.1542 15.9193L31.2373 16.5675C30.9416 16.6338 30.6768 16.7977 30.4857 17.0329C30.2946 17.2681 30.1883 17.5609 30.184 17.8639V18.739C29.9228 18.8093 29.6918 18.9634 29.5267 19.1777C29.3616 19.392 29.2714 19.6546 29.2701 19.9252V28.2901C29.2351 28.973 29.7603 29.5549 30.4431 29.5899C31.126 29.6249 31.7079 29.0997 31.7429 28.4168C31.7451 28.3746 31.7451 28.3324 31.7429 28.2902V19.9317C31.741 19.6599 31.6494 19.3963 31.4824 19.1818C31.3154 18.9674 31.0823 18.814 30.8192 18.7455V17.8705C30.8192 17.7124 30.8732 17.5591 30.9722 17.4359C31.0713 17.3127 31.2094 17.2271 31.3637 17.1931L34.1542 16.5838L34.1445 36.7621C34.1445 38.6159 32.4203 39.7243 30.7544 39.7243C29.0772 39.724 27.7179 38.3641 27.7182 36.6869C27.7185 35.087 28.9601 33.7617 30.5567 33.6572C31.5868 33.716 32.4286 34.5006 32.5596 35.524C32.7091 36.4482 32.0812 37.3184 31.157 37.4679L31.1531 37.4686C30.454 37.5718 29.801 37.0961 29.6849 36.3991C29.607 35.8739 29.9648 35.3834 30.4887 35.2971C30.5739 35.283 30.6501 35.2358 30.7007 35.1658C30.7513 35.0958 30.7723 35.0087 30.7591 34.9233C30.7458 34.838 30.6995 34.7613 30.63 34.7099C30.5606 34.6585 30.4737 34.6366 30.3882 34.6489C29.5123 34.7917 28.9142 35.6123 29.0464 36.4898C29.2039 37.4211 30.0076 38.1046 30.9521 38.1103C31.053 38.1108 31.1539 38.1032 31.2535 38.0876C32.5242 37.8834 33.3924 36.6925 33.1981 35.4203C33.0206 34.0735 31.898 33.0508 30.5405 32.9993H4.83966V1.39331H34.1445V6.99694H22.8627C22.7767 6.99694 22.6943 7.03109 22.6335 7.09187C22.5727 7.15265 22.5386 7.23508 22.5386 7.32104V9.80686H22.0038C21.9179 9.80686 21.8354 9.841 21.7746 9.90178C21.7139 9.96256 21.6797 10.045 21.6797 10.131C21.6797 10.2169 21.7139 10.2993 21.7746 10.3601C21.8354 10.4209 21.9179 10.4551 22.0038 10.4551H22.5386V12.9441C22.5386 13.0301 22.5727 13.1125 22.6335 13.1733C22.6943 13.2341 22.7767 13.2682 22.8627 13.2682H24.9563V13.3395C24.9563 14.2005 25.6543 14.8984 26.5152 14.8984C27.3762 14.8984 28.0741 14.2005 28.0741 13.3395C28.0758 13.3158 28.0758 13.2919 28.0741 13.2682H34.1542V15.9193ZM30.5373 28.922C30.4527 28.9283 30.3677 28.9162 30.2882 28.8867C30.2087 28.8572 30.1365 28.8108 30.0765 28.7508C30.0165 28.6908 29.9702 28.6186 29.9406 28.5391C29.9111 28.4596 29.8991 28.3746 29.9054 28.29V19.9316C29.9054 19.776 29.9672 19.6268 30.0772 19.5168C30.1872 19.4067 30.3364 19.3449 30.492 19.3449H30.4952C30.6508 19.3449 30.8 19.4067 30.91 19.5168C31.02 19.6268 31.0818 19.776 31.0818 19.9316V28.29C31.0934 28.446 31.0426 28.6003 30.9404 28.7188C30.8383 28.8373 30.6933 28.9104 30.5373 28.922ZM25.5883 13.3395C25.594 13.2481 25.6148 13.1583 25.6499 13.0738C25.8755 12.554 26.1593 12.0615 26.4958 11.6056C26.8317 12.063 27.1155 12.5565 27.3417 13.077C27.3826 13.1596 27.41 13.2482 27.4227 13.3395H27.4097C27.4097 13.8425 27.002 14.2502 26.499 14.2502C25.996 14.2502 25.5883 13.8425 25.5883 13.3395ZM27.8732 12.62C27.5675 11.9882 27.1972 11.3897 26.768 10.8342C26.7377 10.7952 26.6989 10.7636 26.6545 10.7419C26.6102 10.7202 26.5614 10.7089 26.512 10.7089C26.4626 10.7089 26.4138 10.7202 26.3695 10.7419C26.3251 10.7636 26.2863 10.7952 26.256 10.8342C25.8263 11.3853 25.4548 11.9794 25.1476 12.6071H23.203V7.64513H37.7873L37.7808 12.62H27.8732ZM39.8518 14.2956C39.8507 14.4031 39.8133 14.5071 39.7457 14.5906C39.678 14.6742 39.584 14.7324 39.4791 14.7558L34.8024 15.7767V13.2682H38.1147C38.2006 13.2682 38.2831 13.2341 38.3438 13.1733C38.4046 13.1125 38.4388 13.0301 38.4388 12.9441V10.4551H39.3786C39.5039 10.4559 39.6237 10.506 39.7123 10.5946C39.8008 10.6831 39.851 10.803 39.8518 10.9282V14.2956Z" fill="black"/>
<path d="M8.2978 5.2663C8.21184 5.2663 8.12941 5.30045 8.06863 5.36123C8.00785 5.42201 7.9737 5.50444 7.9737 5.5904V5.9145C7.9737 6.00045 8.00785 6.08289 8.06863 6.14367C8.12941 6.20445 8.21184 6.23859 8.2978 6.23859C8.38375 6.23859 8.46619 6.20445 8.52697 6.14367C8.58775 6.08289 8.62189 6.00045 8.62189 5.9145V5.5904C8.62189 5.50444 8.58775 5.42201 8.52697 5.36123C8.46619 5.30045 8.38375 5.2663 8.2978 5.2663ZM8.2978 3.25366C8.21184 3.25366 8.12941 3.28781 8.06863 3.34859C8.00785 3.40937 7.9737 3.4918 7.9737 3.57776V3.90186C7.9737 3.98781 8.00785 4.07025 8.06863 4.13103C8.12941 4.19181 8.21184 4.22595 8.2978 4.22595C8.38375 4.22595 8.46619 4.19181 8.52697 4.13103C8.58775 4.07025 8.62189 3.98781 8.62189 3.90186V3.57776C8.62189 3.4918 8.58775 3.40937 8.52697 3.34859C8.46619 3.28781 8.38375 3.25366 8.2978 3.25366ZM7.4519 4.42365H7.12781C7.04185 4.42365 6.95942 4.4578 6.89864 4.51858C6.83786 4.57936 6.80371 4.66179 6.80371 4.74775C6.80371 4.8337 6.83786 4.91614 6.89864 4.97692C6.95942 5.0377 7.04185 5.07184 7.12781 5.07184H7.4519C7.53786 5.07184 7.62029 5.0377 7.68107 4.97692C7.74185 4.91614 7.776 4.8337 7.776 4.74775C7.776 4.66179 7.74185 4.57936 7.68107 4.51858C7.62029 4.4578 7.53786 4.42365 7.4519 4.42365ZM9.46778 4.42365H9.14369C9.05773 4.42365 8.9753 4.4578 8.91452 4.51858C8.85374 4.57936 8.81959 4.66179 8.81959 4.74775C8.81959 4.8337 8.85374 4.91614 8.91452 4.97692C8.9753 5.0377 9.05773 5.07184 9.14369 5.07184H9.46778C9.55374 5.07184 9.63618 5.0377 9.69696 4.97692C9.75774 4.91614 9.79188 4.8337 9.79188 4.74775C9.79188 4.66179 9.75774 4.57936 9.69696 4.51858C9.63618 4.4578 9.55374 4.42365 9.46778 4.42365ZM15.7164 5.2663C15.6304 5.2663 15.548 5.30045 15.4872 5.36123C15.4264 5.42201 15.3923 5.50444 15.3923 5.5904V5.9145C15.3923 6.00045 15.4264 6.08289 15.4872 6.14367C15.548 6.20445 15.6304 6.23859 15.7164 6.23859C15.8023 6.23859 15.8848 6.20445 15.9455 6.14367C16.0063 6.08289 16.0405 6.00045 16.0405 5.9145V5.5904C16.0405 5.50444 16.0063 5.42201 15.9455 5.36123C15.8848 5.30045 15.8023 5.2663 15.7164 5.2663ZM15.7164 3.25366C15.6304 3.25366 15.548 3.28781 15.4872 3.34859C15.4264 3.40937 15.3923 3.4918 15.3923 3.57776V3.90186C15.3923 3.98781 15.4264 4.07025 15.4872 4.13103C15.548 4.19181 15.6304 4.22595 15.7164 4.22595C15.8023 4.22595 15.8848 4.19181 15.9455 4.13103C16.0063 4.07025 16.0405 3.98781 16.0405 3.90186V3.57776C16.0405 3.4918 16.0063 3.40937 15.9455 3.34859C15.8848 3.28781 15.8023 3.25366 15.7164 3.25366ZM14.8737 4.42365H14.5496C14.4637 4.42365 14.3812 4.4578 14.3204 4.51858C14.2597 4.57936 14.2255 4.66179 14.2255 4.74775C14.2255 4.8337 14.2597 4.91614 14.3204 4.97692C14.3812 5.0377 14.4637 5.07184 14.5496 5.07184H14.8737C14.9597 5.07184 15.0421 5.0377 15.1029 4.97692C15.1637 4.91614 15.1978 4.8337 15.1978 4.74775C15.1978 4.66179 15.1637 4.57936 15.1029 4.51858C15.0421 4.4578 14.9597 4.42365 14.8737 4.42365ZM16.8831 4.42365H16.559C16.4731 4.42365 16.3906 4.4578 16.3298 4.51858C16.2691 4.57936 16.2349 4.66179 16.2349 4.74775C16.2349 4.8337 16.2691 4.91614 16.3298 4.97692C16.3906 5.0377 16.4731 5.07184 16.559 5.07184H16.8831C16.9691 5.07184 17.0515 5.0377 17.1123 4.97692C17.1731 4.91614 17.2072 4.8337 17.2072 4.74775C17.2072 4.66179 17.1731 4.57936 17.1123 4.51858C17.0515 4.4578 16.9691 4.42365 16.8831 4.42365ZM23.1349 5.26954C23.049 5.26954 22.9665 5.30369 22.9058 5.36447C22.845 5.42525 22.8108 5.50768 22.8108 5.59364V5.91774C22.8108 6.00369 22.845 6.08613 22.9058 6.14691C22.9665 6.20769 23.049 6.24183 23.1349 6.24183C23.2209 6.24183 23.3033 6.20769 23.3641 6.14691C23.4249 6.08613 23.459 6.00369 23.459 5.91774V5.59364C23.459 5.50768 23.4249 5.42525 23.3641 5.36447C23.3033 5.30369 23.2209 5.26954 23.1349 5.26954ZM23.1349 3.2569C23.049 3.2569 22.9665 3.29105 22.9058 3.35183C22.845 3.41261 22.8108 3.49504 22.8108 3.581V3.9051C22.8108 3.99105 22.845 4.07349 22.9058 4.13427C22.9665 4.19505 23.049 4.22919 23.1349 4.22919C23.2209 4.22919 23.3033 4.19505 23.3641 4.13427C23.4249 4.07349 23.459 3.99105 23.459 3.9051V3.581C23.459 3.49504 23.4249 3.41261 23.3641 3.35183C23.3033 3.29105 23.2209 3.2569 23.1349 3.2569ZM22.289 4.42365H21.9649C21.879 4.42365 21.7966 4.4578 21.7358 4.51858C21.675 4.57936 21.6409 4.66179 21.6409 4.74775C21.6409 4.8337 21.675 4.91614 21.7358 4.97692C21.7966 5.0377 21.879 5.07184 21.9649 5.07184H22.289C22.375 5.07184 22.4574 5.0377 22.5182 4.97692C22.579 4.91614 22.6131 4.8337 22.6131 4.74775C22.6131 4.66179 22.579 4.57936 22.5182 4.51858C22.4574 4.4578 22.375 4.42365 22.289 4.42365ZM24.3017 4.42365H23.9776C23.8916 4.42365 23.8092 4.4578 23.7484 4.51858C23.6876 4.57936 23.6535 4.66179 23.6535 4.74775C23.6535 4.8337 23.6876 4.91614 23.7484 4.97692C23.8092 5.0377 23.8916 5.07184 23.9776 5.07184H24.3017C24.3876 5.07184 24.4701 5.0377 24.5309 4.97692C24.5916 4.91614 24.6258 4.8337 24.6258 4.74775C24.6258 4.66179 24.5916 4.57936 24.5309 4.51858C24.4701 4.4578 24.3876 4.42365 24.3017 4.42365ZM30.5567 5.26954C30.4708 5.26954 30.3884 5.30369 30.3276 5.36447C30.2668 5.42525 30.2326 5.50768 30.2326 5.59364V5.91774C30.2326 6.00369 30.2668 6.08613 30.3276 6.14691C30.3884 6.20769 30.4708 6.24183 30.5567 6.24183C30.6427 6.24183 30.7251 6.20769 30.7859 6.14691C30.8467 6.08613 30.8808 6.00369 30.8808 5.91774V5.59364C30.8808 5.50768 30.8467 5.42525 30.7859 5.36447C30.7251 5.30369 30.6427 5.26954 30.5567 5.26954ZM30.5567 3.2569C30.4708 3.2569 30.3884 3.29105 30.3276 3.35183C30.2668 3.41261 30.2326 3.49504 30.2326 3.581V3.9051C30.2326 3.99105 30.2668 4.07349 30.3276 4.13427C30.3884 4.19505 30.4708 4.22919 30.5567 4.22919C30.6427 4.22919 30.7251 4.19505 30.7859 4.13427C30.8467 4.07349 30.8808 3.99105 30.8808 3.9051V3.581C30.8808 3.49504 30.8467 3.41261 30.7859 3.35183C30.7251 3.29105 30.6427 3.2569 30.5567 3.2569ZM29.7076 4.42365H29.3835C29.2976 4.42365 29.2151 4.4578 29.1543 4.51858C29.0936 4.57936 29.0594 4.66179 29.0594 4.74775C29.0594 4.8337 29.0936 4.91614 29.1543 4.97692C29.2151 5.0377 29.2976 5.07184 29.3835 5.07184H29.7076C29.7936 5.07184 29.876 5.0377 29.9368 4.97692C29.9976 4.91614 30.0317 4.8337 30.0317 4.74775C30.0317 4.66179 29.9976 4.57936 29.9368 4.51858C29.876 4.4578 29.7936 4.42365 29.7076 4.42365ZM31.7235 4.42365H31.3994C31.3134 4.42365 31.231 4.4578 31.1702 4.51858C31.1094 4.57936 31.0753 4.66179 31.0753 4.74775C31.0753 4.8337 31.1094 4.91614 31.1702 4.97692C31.231 5.0377 31.3134 5.07184 31.3994 5.07184H31.7235C31.8095 5.07184 31.8919 5.0377 31.9527 4.97692C32.0134 4.91614 32.0476 4.8337 32.0476 4.74775C32.0476 4.66179 32.0134 4.57936 31.9527 4.51858C31.8919 4.4578 31.8095 4.42365 31.7235 4.42365ZM13.2403 9.59299L13.0102 9.36288C12.9494 9.30252 12.8673 9.26864 12.7817 9.26864C12.6961 9.26864 12.6139 9.30252 12.5532 9.36288C12.523 9.39286 12.4989 9.42849 12.4825 9.46774C12.466 9.507 12.4575 9.54911 12.4573 9.59167C12.4571 9.63424 12.4654 9.67642 12.4815 9.7158C12.4976 9.75519 12.5213 9.79102 12.5513 9.82124L12.5532 9.8231L12.7833 10.0532C12.8447 10.1119 12.9267 10.1441 13.0116 10.143C13.0965 10.1419 13.1776 10.1075 13.2375 10.0472C13.2973 9.98694 13.3311 9.9056 13.3317 9.82067C13.3322 9.73574 13.2994 9.65399 13.2403 9.59299ZM11.8304 8.17021L11.6003 7.9401C11.5704 7.90988 11.5347 7.88586 11.4955 7.86941C11.4562 7.85296 11.4141 7.84441 11.3715 7.84423C11.329 7.84406 11.2868 7.85227 11.2474 7.8684C11.208 7.88453 11.1722 7.90826 11.142 7.93824L11.1401 7.9401C11.0798 8.00082 11.0459 8.08297 11.0459 8.16859C11.0459 8.25421 11.0798 8.33635 11.1401 8.39708L11.3735 8.62718C11.4333 8.68825 11.5149 8.7232 11.6003 8.72441C11.6647 8.72479 11.7277 8.70598 11.7814 8.6704C11.835 8.63481 11.8769 8.58405 11.9015 8.5246C11.9262 8.46515 11.9327 8.39969 11.92 8.33657C11.9073 8.27346 11.8762 8.21554 11.8304 8.17021ZM11.8323 9.36475L11.8304 9.36288C11.7697 9.30252 11.6876 9.26864 11.602 9.26864C11.5163 9.26864 11.4342 9.30252 11.3735 9.36288L11.1401 9.59299C11.1099 9.62296 11.0859 9.6586 11.0694 9.69785C11.053 9.73711 11.0444 9.77922 11.0443 9.82178C11.0441 9.86434 11.0523 9.90653 11.0684 9.94591C11.0846 9.9853 11.1083 10.0211 11.1383 10.0513L11.1401 10.0532C11.1701 10.0834 11.2057 10.1074 11.245 10.1239C11.2842 10.1403 11.3264 10.1489 11.3689 10.1491C11.4115 10.1492 11.4537 10.141 11.493 10.1249C11.5324 10.1088 11.5683 10.085 11.5985 10.0551L11.6003 10.0532L11.8304 9.8231C11.8607 9.79313 11.8847 9.7575 11.9011 9.71824C11.9176 9.67898 11.9261 9.63687 11.9263 9.59431C11.9265 9.55175 11.9183 9.50957 11.9021 9.47018C11.886 9.43079 11.8623 9.39496 11.8323 9.36475ZM13.2757 7.9401C13.2453 7.90457 13.2075 7.87606 13.165 7.85651C13.1225 7.83695 13.0763 7.82683 13.0295 7.82683C12.9828 7.82683 12.9365 7.83695 12.894 7.85651C12.8516 7.87606 12.8138 7.90457 12.7834 7.9401L12.5533 8.17021C12.4929 8.23093 12.459 8.31307 12.459 8.39869C12.459 8.48432 12.4929 8.56646 12.5533 8.62718C12.6131 8.68825 12.6946 8.7232 12.7801 8.72441C12.823 8.72424 12.8654 8.71555 12.9049 8.69886C12.9444 8.68217 12.9802 8.65781 13.0102 8.62718L13.2403 8.39708C13.3056 8.34116 13.346 8.2616 13.3527 8.1759C13.3593 8.0902 13.3316 8.00538 13.2757 7.9401ZM20.607 9.59299L20.3769 9.36288C20.3155 9.30363 20.2333 9.27086 20.148 9.27162C20.0626 9.27238 19.981 9.3066 19.9207 9.36693C19.8604 9.42726 19.8261 9.50887 19.8254 9.59419C19.8246 9.67951 19.8574 9.76171 19.9167 9.8231L20.15 10.0532C20.1802 10.0832 20.2161 10.107 20.2555 10.1231C20.2949 10.1393 20.3371 10.1475 20.3796 10.1474C20.4222 10.1472 20.4644 10.1387 20.5036 10.1223C20.5429 10.1058 20.5786 10.0818 20.6086 10.0516C20.6386 10.0214 20.6624 9.98554 20.6785 9.94614C20.6947 9.90674 20.7029 9.86454 20.7028 9.82195C20.7026 9.77937 20.6941 9.73723 20.6776 9.69795C20.6612 9.65866 20.6372 9.623 20.607 9.59299ZM19.1842 8.17021L18.9508 7.9401C18.9231 7.90212 18.8874 7.87064 18.8462 7.84785C18.805 7.82507 18.7594 7.81152 18.7124 7.80816C18.6655 7.80479 18.6184 7.81169 18.5744 7.82836C18.5304 7.84504 18.4905 7.8711 18.4576 7.90473C18.4247 7.93836 18.3995 7.97875 18.3838 8.0231C18.3681 8.06745 18.3622 8.1147 18.3666 8.16155C18.3709 8.2084 18.3855 8.25374 18.4091 8.29441C18.4328 8.33509 18.465 8.37012 18.5036 8.39708L18.724 8.62718C18.785 8.68628 18.8667 8.71909 18.9517 8.71857C19.0366 8.71805 19.1179 8.68423 19.1782 8.62439C19.2385 8.56455 19.2729 8.48345 19.274 8.39853C19.2751 8.3136 19.2429 8.23162 19.1842 8.17021ZM19.1842 9.36288C19.1232 9.30187 19.0404 9.26759 18.9541 9.26759C18.8678 9.26759 18.785 9.30187 18.724 9.36288L18.4939 9.59299C18.4348 9.65399 18.402 9.73574 18.4025 9.82067C18.403 9.9056 18.4368 9.98694 18.4967 10.0472C18.5565 10.1075 18.6376 10.1419 18.7225 10.143C18.8075 10.1441 18.8894 10.1119 18.9508 10.0532L19.1842 9.8231C19.2144 9.79289 19.2384 9.75702 19.2548 9.71753C19.2711 9.67805 19.2796 9.63573 19.2796 9.59299C19.2796 9.55025 19.2711 9.50793 19.2548 9.46845C19.2384 9.42897 19.2144 9.39309 19.1842 9.36288ZM20.6424 7.9401C20.612 7.90457 20.5742 7.87606 20.5317 7.85651C20.4892 7.83695 20.443 7.82683 20.3962 7.82683C20.3495 7.82683 20.3032 7.83695 20.2608 7.85651C20.2183 7.87606 20.1805 7.90457 20.1501 7.9401L19.9167 8.17021C19.871 8.21554 19.8399 8.27346 19.8272 8.33657C19.8145 8.39969 19.821 8.46515 19.8456 8.5246C19.8703 8.58405 19.9122 8.63481 19.9658 8.6704C20.0194 8.70598 20.0825 8.72479 20.1468 8.72441C20.1897 8.72424 20.2321 8.71555 20.2716 8.69886C20.3111 8.68217 20.3469 8.65781 20.377 8.62718L20.6071 8.39708C20.6723 8.34116 20.7127 8.2616 20.7194 8.1759C20.726 8.0902 20.6983 8.00538 20.6424 7.9401ZM8.2978 13.7512C8.21184 13.7512 8.12941 13.7853 8.06863 13.8461C8.00785 13.9069 7.9737 13.9893 7.9737 14.0752V14.3993C7.9737 14.4853 8.00785 14.5677 8.06863 14.6285C8.12941 14.6893 8.21184 14.7234 8.2978 14.7234C8.38375 14.7234 8.46619 14.6893 8.52697 14.6285C8.58775 14.5677 8.62189 14.4853 8.62189 14.3993V14.0752C8.62189 13.9893 8.58775 13.9069 8.52697 13.8461C8.46619 13.7853 8.38375 13.7512 8.2978 13.7512ZM8.2978 11.7515C8.21184 11.7515 8.12941 11.7856 8.06863 11.8464C8.00785 11.9072 7.9737 11.9896 7.9737 12.0756V12.3997C7.9737 12.4856 8.00785 12.5681 8.06863 12.6288C8.12941 12.6896 8.21184 12.7238 8.2978 12.7238C8.38375 12.7238 8.46619 12.6896 8.52697 12.6288C8.58775 12.5681 8.62189 12.4856 8.62189 12.3997V12.0756C8.62189 11.9896 8.58775 11.9072 8.52697 11.8464C8.46619 11.7856 8.38375 11.7515 8.2978 11.7515ZM7.4519 12.9215H7.12781C7.04185 12.9215 6.95942 12.9556 6.89864 13.0164C6.83786 13.0772 6.80371 13.1596 6.80371 13.2456C6.80371 13.3315 6.83786 13.414 6.89864 13.4747C6.95942 13.5355 7.04185 13.5697 7.12781 13.5697H7.4519C7.53786 13.5697 7.62029 13.5355 7.68107 13.4747C7.74185 13.414 7.776 13.3315 7.776 13.2456C7.776 13.1596 7.74185 13.0772 7.68107 13.0164C7.62029 12.9556 7.53786 12.9215 7.4519 12.9215ZM9.46778 12.9215H9.14369C9.05773 12.9215 8.9753 12.9556 8.91452 13.0164C8.85374 13.0772 8.81959 13.1596 8.81959 13.2456C8.81959 13.3315 8.85374 13.414 8.91452 13.4747C8.9753 13.5355 9.05773 13.5697 9.14369 13.5697H9.46778C9.55374 13.5697 9.63618 13.5355 9.69696 13.4747C9.75774 13.414 9.79188 13.3315 9.79188 13.2456C9.79188 13.1596 9.75774 13.0772 9.69696 13.0164C9.63618 12.9556 9.55374 12.9215 9.46778 12.9215ZM15.7164 13.7512C15.6304 13.7512 15.548 13.7853 15.4872 13.8461C15.4264 13.9069 15.3923 13.9893 15.3923 14.0752V14.3993C15.3923 14.4853 15.4264 14.5677 15.4872 14.6285C15.548 14.6893 15.6304 14.7234 15.7164 14.7234C15.8023 14.7234 15.8848 14.6893 15.9455 14.6285C16.0063 14.5677 16.0405 14.4853 16.0405 14.3993V14.0752C16.0405 13.9893 16.0063 13.9069 15.9455 13.8461C15.8848 13.7853 15.8023 13.7512 15.7164 13.7512ZM15.7164 11.7515C15.6304 11.7515 15.548 11.7856 15.4872 11.8464C15.4264 11.9072 15.3923 11.9896 15.3923 12.0756V12.3997C15.3923 12.4856 15.4264 12.5681 15.4872 12.6288C15.548 12.6896 15.6304 12.7238 15.7164 12.7238C15.8023 12.7238 15.8848 12.6896 15.9455 12.6288C16.0063 12.5681 16.0405 12.4856 16.0405 12.3997V12.0756C16.0405 11.9896 16.0063 11.9072 15.9455 11.8464C15.8848 11.7856 15.8023 11.7515 15.7164 11.7515ZM14.8737 12.9215H14.5496C14.4637 12.9215 14.3812 12.9556 14.3204 13.0164C14.2597 13.0772 14.2255 13.1596 14.2255 13.2456C14.2255 13.3315 14.2597 13.414 14.3204 13.4747C14.3812 13.5355 14.4637 13.5697 14.5496 13.5697H14.8737C14.9597 13.5697 15.0421 13.5355 15.1029 13.4747C15.1637 13.414 15.1978 13.3315 15.1978 13.2456C15.1978 13.1596 15.1637 13.0772 15.1029 13.0164C15.0421 12.9556 14.9597 12.9215 14.8737 12.9215ZM16.8831 12.9215H16.559C16.4731 12.9215 16.3906 12.9556 16.3298 13.0164C16.2691 13.0772 16.2349 13.1596 16.2349 13.2456C16.2349 13.3315 16.2691 13.414 16.3298 13.4747C16.3906 13.5355 16.4731 13.5697 16.559 13.5697H16.8831C16.9691 13.5697 17.0515 13.5355 17.1123 13.4747C17.1731 13.414 17.2072 13.3315 17.2072 13.2456C17.2072 13.1596 17.1731 13.0772 17.1123 13.0164C17.0515 12.9556 16.9691 12.9215 16.8831 12.9215ZM13.2403 18.0908L13.0102 17.8607C12.9494 17.8003 12.8673 17.7665 12.7817 17.7665C12.6961 17.7665 12.6139 17.8003 12.5532 17.8607C12.523 17.8907 12.4989 17.9263 12.4825 17.9656C12.466 18.0048 12.4575 18.0469 12.4573 18.0895C12.4571 18.132 12.4654 18.1742 12.4815 18.2136C12.4976 18.253 12.5213 18.2888 12.5513 18.319L12.5532 18.3209L12.7833 18.551C12.8447 18.6097 12.9267 18.6419 13.0116 18.6408C13.0965 18.6397 13.1776 18.6053 13.2375 18.545C13.2973 18.4847 13.3311 18.4034 13.3317 18.3185C13.3322 18.2336 13.2994 18.1518 13.2403 18.0908ZM11.8175 16.668L11.5874 16.4379C11.5574 16.4077 11.5218 16.3837 11.4825 16.3672C11.4433 16.3508 11.4011 16.3422 11.3586 16.342C11.316 16.3419 11.2738 16.3501 11.2345 16.3662C11.1951 16.3823 11.1592 16.4061 11.129 16.436L11.1272 16.4379C11.0668 16.4986 11.0329 16.5808 11.0329 16.6664C11.0329 16.752 11.0668 16.8342 11.1272 16.8949L11.3735 17.125C11.4333 17.1861 11.5149 17.221 11.6003 17.2222C11.6636 17.2201 11.7249 17.1995 11.7766 17.163C11.8283 17.1264 11.8682 17.0756 11.8913 17.0166C11.9144 16.9576 11.9197 16.8932 11.9066 16.8312C11.8935 16.7693 11.8625 16.7126 11.8175 16.668ZM11.8323 17.8626L11.8304 17.8607C11.7697 17.8003 11.6876 17.7665 11.602 17.7665C11.5163 17.7665 11.4342 17.8003 11.3735 17.8607L11.1401 18.0908C11.1099 18.1208 11.0859 18.1564 11.0694 18.1957C11.053 18.2349 11.0444 18.277 11.0443 18.3196C11.0441 18.3622 11.0523 18.4043 11.0684 18.4437C11.0846 18.4831 11.1083 18.5189 11.1383 18.5492L11.1401 18.551C11.1701 18.5812 11.2057 18.6053 11.245 18.6217C11.2842 18.6382 11.3264 18.6467 11.3689 18.6469C11.4115 18.6471 11.4537 18.6388 11.493 18.6227C11.5324 18.6066 11.5683 18.5829 11.5985 18.5529L11.6003 18.551L11.8304 18.3209C11.8607 18.2909 11.8847 18.2553 11.9011 18.2161C11.9176 18.1768 11.9261 18.1347 11.9263 18.0921C11.9265 18.0496 11.9183 18.0074 11.9021 17.968C11.886 17.9286 11.8623 17.8928 11.8323 17.8626ZM13.2049 16.4379C13.1462 16.3876 13.0714 16.36 12.9941 16.36C12.9168 16.36 12.842 16.3876 12.7833 16.4379L12.5532 16.668C12.4928 16.7287 12.4589 16.8109 12.4589 16.8965C12.4589 16.9821 12.4928 17.0643 12.5532 17.125C12.613 17.1861 12.6946 17.221 12.7801 17.2222C12.8229 17.222 12.8654 17.2134 12.9049 17.1967C12.9443 17.18 12.9801 17.1556 13.0102 17.125L13.2403 16.8949C13.2962 16.8296 13.3239 16.7448 13.3172 16.6591C13.3106 16.5734 13.2702 16.4938 13.2049 16.4379ZM20.607 18.0908L20.3769 17.8607C20.3155 17.8014 20.2333 17.7687 20.148 17.7694C20.0626 17.7702 19.981 17.8044 19.9207 17.8647C19.8604 17.9251 19.8261 18.0067 19.8254 18.092C19.8246 18.1773 19.8574 18.2595 19.9167 18.3209L20.15 18.551C20.2114 18.6097 20.2934 18.6419 20.3783 18.6408C20.4632 18.6397 20.5443 18.6053 20.6042 18.545C20.664 18.4847 20.6978 18.4034 20.6984 18.3185C20.6989 18.2336 20.6661 18.1518 20.607 18.0908ZM19.1842 16.668L18.9508 16.4379C18.8879 16.3939 18.8115 16.3737 18.7351 16.3809C18.6587 16.388 18.5873 16.422 18.5336 16.4769C18.4799 16.5317 18.4474 16.6038 18.4419 16.6804C18.4364 16.7569 18.4583 16.8329 18.5036 16.8949L18.724 17.125C18.785 17.1841 18.8667 17.2169 18.9517 17.2164C19.0366 17.2159 19.1179 17.182 19.1782 17.1222C19.2385 17.0624 19.2729 16.9813 19.274 16.8963C19.2751 16.8114 19.2429 16.7294 19.1842 16.668ZM19.1842 17.8607C19.1232 17.7997 19.0404 17.7654 18.9541 17.7654C18.8678 17.7654 18.785 17.7997 18.724 17.8607L18.4939 18.0908C18.4348 18.1518 18.402 18.2336 18.4025 18.3185C18.403 18.4034 18.4368 18.4847 18.4967 18.545C18.5565 18.6053 18.6376 18.6397 18.7225 18.6408C18.8075 18.6419 18.8894 18.6097 18.9508 18.551L19.1842 18.3209C19.2144 18.2907 19.2384 18.2548 19.2548 18.2153C19.2711 18.1759 19.2796 18.1335 19.2796 18.0908C19.2796 18.0481 19.2711 18.0057 19.2548 17.9663C19.2384 17.9268 19.2144 17.8909 19.1842 17.8607ZM20.5717 16.4379C20.5129 16.3876 20.4381 16.36 20.3608 16.36C20.2835 16.36 20.2087 16.3876 20.15 16.4379L19.9167 16.668C19.871 16.7134 19.8398 16.7713 19.8271 16.8344C19.8145 16.8975 19.8209 16.963 19.8456 17.0224C19.8702 17.0819 19.9121 17.1326 19.9657 17.1682C20.0194 17.2038 20.0824 17.2226 20.1468 17.2222C20.1896 17.222 20.2321 17.2134 20.2716 17.1967C20.3111 17.18 20.3469 17.1556 20.3769 17.125L20.607 16.8949C20.6629 16.8296 20.6906 16.7448 20.684 16.6591C20.6773 16.5734 20.6369 16.4938 20.5717 16.4379ZM27.9756 18.0927L27.9737 18.0908L27.7404 17.8607C27.6796 17.8003 27.5975 17.7665 27.5119 17.7665C27.4262 17.7665 27.3441 17.8003 27.2834 17.8607C27.2532 17.8907 27.2291 17.9263 27.2127 17.9656C27.1962 18.0048 27.1877 18.0469 27.1875 18.0895C27.1873 18.132 27.1955 18.1742 27.2117 18.2136C27.2278 18.253 27.2515 18.2888 27.2815 18.319L27.2834 18.3209L27.5135 18.551C27.5435 18.5812 27.5791 18.6053 27.6183 18.6217C27.6576 18.6382 27.6997 18.6467 27.7423 18.6469C27.7848 18.6471 27.827 18.6388 27.8664 18.6227C27.9058 18.6066 27.9416 18.5829 27.9718 18.5529L27.9737 18.551C28.0039 18.521 28.0279 18.4854 28.0444 18.4462C28.0608 18.4069 28.0694 18.3648 28.0696 18.3222C28.0697 18.2797 28.0615 18.2375 28.0454 18.1981C28.0293 18.1587 28.0055 18.1229 27.9756 18.0927ZM26.5477 16.668L26.3176 16.4379C26.2556 16.3848 26.1758 16.3571 26.0942 16.3602C26.0127 16.3634 25.9353 16.3972 25.8776 16.4549C25.8199 16.5126 25.7861 16.59 25.7829 16.6716C25.7797 16.7531 25.8075 16.8329 25.8606 16.8949L26.0907 17.125C26.1207 17.1556 26.1565 17.18 26.196 17.1967C26.2355 17.2134 26.2779 17.222 26.3208 17.2222C26.4063 17.221 26.4878 17.1861 26.5477 17.125C26.608 17.0643 26.6419 16.9821 26.6419 16.8965C26.6419 16.8109 26.608 16.7287 26.5477 16.668ZM26.5496 17.8626L26.5478 17.8607C26.487 17.8003 26.4049 17.7665 26.3193 17.7665C26.2336 17.7665 26.1515 17.8003 26.0908 17.8607L25.8607 18.0908C25.8016 18.1518 25.7688 18.2336 25.7693 18.3185C25.7698 18.4034 25.8036 18.4847 25.8635 18.545C25.9233 18.6053 26.0044 18.6397 26.0893 18.6408C26.1743 18.6419 26.2562 18.6097 26.3176 18.551L26.5478 18.3209C26.6088 18.2604 26.6432 18.1781 26.6436 18.0921C26.6439 18.0062 26.6101 17.9236 26.5496 17.8626ZM27.9737 16.4379C27.9437 16.4077 27.9081 16.3837 27.8688 16.3672C27.8296 16.3508 27.7875 16.3422 27.7449 16.342C27.7023 16.3419 27.6602 16.3501 27.6208 16.3662C27.5814 16.3823 27.5456 16.4061 27.5153 16.436L27.5135 16.4379L27.2834 16.668C27.2377 16.7134 27.2065 16.7713 27.1938 16.8344C27.1812 16.8975 27.1876 16.963 27.2123 17.0224C27.237 17.0819 27.2788 17.1326 27.3324 17.1682C27.3861 17.2038 27.4491 17.2226 27.5135 17.2222C27.599 17.221 27.6805 17.1861 27.7404 17.125L27.9737 16.8949C28.0341 16.8342 28.0679 16.752 28.0679 16.6664C28.0679 16.5808 28.0341 16.4986 27.9737 16.4379ZM8.2978 22.2619C8.21184 22.2619 8.12941 22.2961 8.06863 22.3569C8.00785 22.4176 7.9737 22.5001 7.9737 22.586V22.9101C7.9737 22.9961 8.00785 23.0785 8.06863 23.1393C8.12941 23.2001 8.21184 23.2342 8.2978 23.2342C8.38375 23.2342 8.46619 23.2001 8.52697 23.1393C8.58775 23.0785 8.62189 22.9961 8.62189 22.9101V22.586C8.62189 22.5001 8.58775 22.4176 8.52697 22.3569C8.46619 22.2961 8.38375 22.2619 8.2978 22.2619ZM8.2978 20.2493C8.21184 20.2493 8.12941 20.2834 8.06863 20.3442C8.00785 20.405 7.9737 20.4874 7.9737 20.5734V20.8975C7.9737 20.9834 8.00785 21.0659 8.06863 21.1267C8.12941 21.1874 8.21184 21.2216 8.2978 21.2216C8.38375 21.2216 8.46619 21.1874 8.52697 21.1267C8.58775 21.0659 8.62189 20.9834 8.62189 20.8975V20.5734C8.62189 20.4874 8.58775 20.405 8.52697 20.3442C8.46619 20.2834 8.38375 20.2493 8.2978 20.2493ZM7.4519 21.4193H7.12781C7.04185 21.4193 6.95942 21.4534 6.89864 21.5142C6.83786 21.575 6.80371 21.6574 6.80371 21.7434C6.80371 21.8293 6.83786 21.9118 6.89864 21.9725C6.95942 22.0333 7.04185 22.0675 7.12781 22.0675H7.4519C7.53786 22.0675 7.62029 22.0333 7.68107 21.9725C7.74185 21.9118 7.776 21.8293 7.776 21.7434C7.776 21.6574 7.74185 21.575 7.68107 21.5142C7.62029 21.4534 7.53786 21.4193 7.4519 21.4193ZM9.46778 21.4193H9.14369C9.05773 21.4193 8.9753 21.4534 8.91452 21.5142C8.85374 21.575 8.81959 21.6574 8.81959 21.7434C8.81959 21.8293 8.85374 21.9118 8.91452 21.9725C8.9753 22.0333 9.05773 22.0675 9.14369 22.0675H9.46778C9.55374 22.0675 9.63618 22.0333 9.69696 21.9725C9.75774 21.9118 9.79188 21.8293 9.79188 21.7434C9.79188 21.6574 9.75774 21.575 9.69696 21.5142C9.63618 21.4534 9.55374 21.4193 9.46778 21.4193ZM15.7164 22.2619C15.6304 22.2619 15.548 22.2961 15.4872 22.3569C15.4264 22.4176 15.3923 22.5001 15.3923 22.586V22.9101C15.3923 22.9961 15.4264 23.0785 15.4872 23.1393C15.548 23.2001 15.6304 23.2342 15.7164 23.2342C15.8023 23.2342 15.8848 23.2001 15.9455 23.1393C16.0063 23.0785 16.0405 22.9961 16.0405 22.9101V22.586C16.0405 22.5001 16.0063 22.4176 15.9455 22.3569C15.8848 22.2961 15.8023 22.2619 15.7164 22.2619ZM15.7164 20.2493C15.6304 20.2493 15.548 20.2834 15.4872 20.3442C15.4264 20.405 15.3923 20.4874 15.3923 20.5734V20.8975C15.3923 20.9834 15.4264 21.0659 15.4872 21.1267C15.548 21.1874 15.6304 21.2216 15.7164 21.2216C15.8023 21.2216 15.8848 21.1874 15.9455 21.1267C16.0063 21.0659 16.0405 20.9834 16.0405 20.8975V20.5734C16.0405 20.4874 16.0063 20.405 15.9455 20.3442C15.8848 20.2834 15.8023 20.2493 15.7164 20.2493ZM14.8737 21.4193H14.5496C14.4637 21.4193 14.3812 21.4534 14.3204 21.5142C14.2597 21.575 14.2255 21.6574 14.2255 21.7434C14.2255 21.8293 14.2597 21.9118 14.3204 21.9725C14.3812 22.0333 14.4637 22.0675 14.5496 22.0675H14.8737C14.9597 22.0675 15.0421 22.0333 15.1029 21.9725C15.1637 21.9118 15.1978 21.8293 15.1978 21.7434C15.1978 21.6574 15.1637 21.575 15.1029 21.5142C15.0421 21.4534 14.9597 21.4193 14.8737 21.4193ZM16.8831 21.4193H16.559C16.4731 21.4193 16.3906 21.4534 16.3298 21.5142C16.2691 21.575 16.2349 21.6574 16.2349 21.7434C16.2349 21.8293 16.2691 21.9118 16.3298 21.9725C16.3906 22.0333 16.4731 22.0675 16.559 22.0675H16.8831C16.9691 22.0675 17.0515 22.0333 17.1123 21.9725C17.1731 21.9118 17.2072 21.8293 17.2072 21.7434C17.2072 21.6574 17.1731 21.575 17.1123 21.5142C17.0515 21.4534 16.9691 21.4193 16.8831 21.4193ZM23.1349 22.2619C23.049 22.2619 22.9665 22.2961 22.9058 22.3569C22.845 22.4176 22.8108 22.5001 22.8108 22.586V22.9101C22.8108 22.9961 22.845 23.0785 22.9058 23.1393C22.9665 23.2001 23.049 23.2342 23.1349 23.2342C23.2209 23.2342 23.3033 23.2001 23.3641 23.1393C23.4249 23.0785 23.459 22.9961 23.459 22.9101V22.586C23.459 22.5001 23.4249 22.4176 23.3641 22.3569C23.3033 22.2961 23.2209 22.2619 23.1349 22.2619ZM23.1349 20.2493C23.049 20.2493 22.9665 20.2834 22.9058 20.3442C22.845 20.405 22.8108 20.4874 22.8108 20.5734V20.8975C22.8108 20.9834 22.845 21.0659 22.9058 21.1267C22.9665 21.1874 23.049 21.2216 23.1349 21.2216C23.2209 21.2216 23.3033 21.1874 23.3641 21.1267C23.4249 21.0659 23.459 20.9834 23.459 20.8975V20.5734C23.459 20.4874 23.4249 20.405 23.3641 20.3442C23.3033 20.2834 23.2209 20.2493 23.1349 20.2493ZM22.2923 21.4193H21.9682C21.8822 21.4193 21.7998 21.4534 21.739 21.5142C21.6782 21.575 21.6441 21.6574 21.6441 21.7434C21.6441 21.8293 21.6782 21.9118 21.739 21.9725C21.7998 22.0333 21.8822 22.0675 21.9682 22.0675H22.2923C22.3782 22.0675 22.4607 22.0333 22.5215 21.9725C22.5822 21.9118 22.6164 21.8293 22.6164 21.7434C22.6164 21.6574 22.5822 21.575 22.5215 21.5142C22.4607 21.4534 22.3782 21.4193 22.2923 21.4193ZM24.3049 21.4193H23.9808C23.8949 21.4193 23.8124 21.4534 23.7517 21.5142C23.6909 21.575 23.6567 21.6574 23.6567 21.7434C23.6567 21.8293 23.6909 21.9118 23.7517 21.9725C23.8124 22.0333 23.8949 22.0675 23.9808 22.0675H24.3049C24.3909 22.0675 24.4733 22.0333 24.5341 21.9725C24.5949 21.9118 24.629 21.8293 24.629 21.7434C24.629 21.6574 24.5949 21.575 24.5341 21.5142C24.4733 21.4534 24.3909 21.4193 24.3049 21.4193ZM8.2978 30.7597C8.21184 30.7597 8.12941 30.7939 8.06863 30.8547C8.00785 30.9154 7.9737 30.9979 7.9737 31.0838V31.4079C7.9737 31.4939 8.00785 31.5763 8.06863 31.6371C8.12941 31.6979 8.21184 31.732 8.2978 31.732C8.38375 31.732 8.46619 31.6979 8.52697 31.6371C8.58775 31.5763 8.62189 31.4939 8.62189 31.4079V31.0838C8.62189 30.9979 8.58775 30.9154 8.52697 30.8547C8.46619 30.7939 8.38375 30.7597 8.2978 30.7597ZM8.2978 28.7471C8.21184 28.7471 8.12941 28.7812 8.06863 28.842C8.00785 28.9028 7.9737 28.9852 7.9737 29.0712V29.3953C7.9737 29.4813 8.00785 29.5637 8.06863 29.6245C8.12941 29.6852 8.21184 29.7194 8.2978 29.7194C8.38375 29.7194 8.46619 29.6852 8.52697 29.6245C8.58775 29.5637 8.62189 29.4813 8.62189 29.3953V29.0712C8.62189 28.9852 8.58775 28.9028 8.52697 28.842C8.46619 28.7812 8.38375 28.7471 8.2978 28.7471ZM7.4519 29.9171H7.12781C7.04185 29.9171 6.95942 29.9512 6.89864 30.012C6.83786 30.0728 6.80371 30.1552 6.80371 30.2412C6.80371 30.3271 6.83786 30.4096 6.89864 30.4704C6.95942 30.5311 7.04185 30.5653 7.12781 30.5653H7.4519C7.53786 30.5653 7.62029 30.5311 7.68107 30.4704C7.74185 30.4096 7.776 30.3271 7.776 30.2412C7.776 30.1552 7.74185 30.0728 7.68107 30.012C7.62029 29.9512 7.53786 29.9171 7.4519 29.9171ZM9.46778 29.9171H9.14369C9.05773 29.9171 8.9753 29.9512 8.91452 30.012C8.85374 30.0728 8.81959 30.1552 8.81959 30.2412C8.81959 30.3271 8.85374 30.4096 8.91452 30.4704C8.9753 30.5311 9.05773 30.5653 9.14369 30.5653H9.46778C9.55374 30.5653 9.63618 30.5311 9.69696 30.4704C9.75774 30.4096 9.79188 30.3271 9.79188 30.2412C9.79188 30.1552 9.75774 30.0728 9.69696 30.012C9.63618 29.9512 9.55374 29.9171 9.46778 29.9171ZM15.7164 30.7597C15.6304 30.7597 15.548 30.7939 15.4872 30.8547C15.4264 30.9154 15.3923 30.9979 15.3923 31.0838V31.4079C15.3923 31.4939 15.4264 31.5763 15.4872 31.6371C15.548 31.6979 15.6304 31.732 15.7164 31.732C15.8023 31.732 15.8848 31.6979 15.9455 31.6371C16.0063 31.5763 16.0405 31.4939 16.0405 31.4079V31.0838C16.0405 30.9979 16.0063 30.9154 15.9455 30.8547C15.8848 30.7939 15.8023 30.7597 15.7164 30.7597ZM15.7164 28.7471C15.6304 28.7471 15.548 28.7812 15.4872 28.842C15.4264 28.9028 15.3923 28.9852 15.3923 29.0712V29.3953C15.3923 29.4813 15.4264 29.5637 15.4872 29.6245C15.548 29.6852 15.6304 29.7194 15.7164 29.7194C15.8023 29.7194 15.8848 29.6852 15.9455 29.6245C16.0063 29.5637 16.0405 29.4813 16.0405 29.3953V29.0712C16.0405 28.9852 16.0063 28.9028 15.9455 28.842C15.8848 28.7812 15.8023 28.7471 15.7164 28.7471ZM14.8737 29.9171H14.5496C14.4637 29.9171 14.3812 29.9512 14.3204 30.012C14.2597 30.0728 14.2255 30.1552 14.2255 30.2412C14.2255 30.3271 14.2597 30.4096 14.3204 30.4704C14.3812 30.5311 14.4637 30.5653 14.5496 30.5653H14.8737C14.9597 30.5653 15.0421 30.5311 15.1029 30.4704C15.1637 30.4096 15.1978 30.3271 15.1978 30.2412C15.1978 30.1552 15.1637 30.0728 15.1029 30.012C15.0421 29.9512 14.9597 29.9171 14.8737 29.9171ZM16.8831 29.9171H16.559C16.4731 29.9171 16.3906 29.9512 16.3298 30.012C16.2691 30.0728 16.2349 30.1552 16.2349 30.2412C16.2349 30.3271 16.2691 30.4096 16.3298 30.4704C16.3906 30.5311 16.4731 30.5653 16.559 30.5653H16.8831C16.9691 30.5653 17.0515 30.5311 17.1123 30.4704C17.1731 30.4096 17.2072 30.3271 17.2072 30.2412C17.2072 30.1552 17.1731 30.0728 17.1123 30.012C17.0515 29.9512 16.9691 29.9171 16.8831 29.9171ZM23.1349 30.7597C23.049 30.7597 22.9665 30.7939 22.9058 30.8547C22.845 30.9154 22.8108 30.9979 22.8108 31.0838V31.4079C22.8108 31.4939 22.845 31.5763 22.9058 31.6371C22.9665 31.6979 23.049 31.732 23.1349 31.732C23.2209 31.732 23.3033 31.6979 23.3641 31.6371C23.4249 31.5763 23.459 31.4939 23.459 31.4079V31.0838C23.459 30.9979 23.4249 30.9154 23.3641 30.8547C23.3033 30.7939 23.2209 30.7597 23.1349 30.7597ZM23.1349 28.7471C23.049 28.7471 22.9665 28.7812 22.9058 28.842C22.845 28.9028 22.8108 28.9852 22.8108 29.0712V29.3953C22.8108 29.4813 22.845 29.5637 22.9058 29.6245C22.9665 29.6852 23.049 29.7194 23.1349 29.7194C23.2209 29.7194 23.3033 29.6852 23.3641 29.6245C23.4249 29.5637 23.459 29.4813 23.459 29.3953V29.0712C23.459 28.9852 23.4249 28.9028 23.3641 28.842C23.3033 28.7812 23.2209 28.7471 23.1349 28.7471ZM22.2923 29.9171H21.9682C21.8822 29.9171 21.7998 29.9512 21.739 30.012C21.6782 30.0728 21.6441 30.1552 21.6441 30.2412C21.6441 30.3271 21.6782 30.4096 21.739 30.4704C21.7998 30.5311 21.8822 30.5653 21.9682 30.5653H22.2923C22.3782 30.5653 22.4607 30.5311 22.5215 30.4704C22.5822 30.4096 22.6164 30.3271 22.6164 30.2412C22.6164 30.1552 22.5822 30.0728 22.5215 30.012C22.4607 29.9512 22.3782 29.9171 22.2923 29.9171ZM24.3049 29.9171H23.9808C23.8949 29.9171 23.8124 29.9512 23.7517 30.012C23.6909 30.0728 23.6567 30.1552 23.6567 30.2412C23.6567 30.3271 23.6909 30.4096 23.7517 30.4704C23.8124 30.5311 23.8949 30.5653 23.9808 30.5653H24.3049C24.3909 30.5653 24.4733 30.5311 24.5341 30.4704C24.5949 30.4096 24.629 30.3271 24.629 30.2412C24.629 30.1552 24.5949 30.0728 24.5341 30.012C24.4733 29.9512 24.3909 29.9171 24.3049 29.9171ZM30.5567 30.7597C30.4708 30.7597 30.3884 30.7939 30.3276 30.8547C30.2668 30.9154 30.2326 30.9979 30.2326 31.0838V31.4079C30.2326 31.4939 30.2668 31.5763 30.3276 31.6371C30.3884 31.6979 30.4708 31.732 30.5567 31.732C30.6427 31.732 30.7251 31.6979 30.7859 31.6371C30.8467 31.5763 30.8808 31.4939 30.8808 31.4079V31.0838C30.8808 30.9979 30.8467 30.9154 30.7859 30.8547C30.7251 30.7939 30.6427 30.7597 30.5567 30.7597ZM29.7109 29.9171H29.3868C29.3008 29.9171 29.2184 29.9512 29.1576 30.012C29.0968 30.0728 29.0627 30.1552 29.0627 30.2412C29.0627 30.3271 29.0968 30.4096 29.1576 30.4704C29.2184 30.5311 29.3008 30.5653 29.3868 30.5653H29.7109C29.7968 30.5653 29.8792 30.5311 29.94 30.4704C30.0008 30.4096 30.035 30.3271 30.035 30.2412C30.035 30.1552 30.0008 30.0728 29.94 30.012C29.8792 29.9512 29.7968 29.9171 29.7109 29.9171ZM31.7235 29.9171H31.3994C31.3134 29.9171 31.231 29.9512 31.1702 30.012C31.1094 30.0728 31.0753 30.1552 31.0753 30.2412C31.0753 30.3271 31.1094 30.4096 31.1702 30.4704C31.231 30.5311 31.3134 30.5653 31.3994 30.5653H31.7235C31.8095 30.5653 31.8919 30.5311 31.9527 30.4704C32.0134 30.4096 32.0476 30.3271 32.0476 30.2412C32.0476 30.1552 32.0134 30.0728 31.9527 30.012C31.8919 29.9512 31.8095 29.9171 31.7235 29.9171ZM13.2403 26.5886L13.0102 26.3585C12.9482 26.3054 12.8684 26.2777 12.7868 26.2808C12.7053 26.284 12.6279 26.3178 12.5702 26.3755C12.5125 26.4332 12.4786 26.5106 12.4755 26.5922C12.4723 26.6737 12.5001 26.7535 12.5532 26.8155L12.7833 27.0488C12.8135 27.0788 12.8493 27.1026 12.8887 27.1188C12.9281 27.1349 12.9703 27.1432 13.0129 27.143C13.0555 27.1429 13.0976 27.1343 13.1369 27.1179C13.1762 27.1014 13.2119 27.0774 13.2419 27.0472C13.2719 27.017 13.2957 26.9812 13.3118 26.9418C13.328 26.9024 13.3362 26.8602 13.3361 26.8176C13.3359 26.775 13.3274 26.7329 13.3109 26.6936C13.2945 26.6543 13.2705 26.6186 13.2403 26.5886ZM11.8304 25.1658L11.6003 24.9357C11.5704 24.9055 11.5347 24.8815 11.4955 24.865C11.4562 24.8486 11.4141 24.84 11.3715 24.8399C11.329 24.8397 11.2868 24.8479 11.2474 24.864C11.208 24.8802 11.1722 24.9039 11.142 24.9339L11.1401 24.9357C11.0798 24.9964 11.0459 25.0786 11.0459 25.1642C11.0459 25.2498 11.0798 25.332 11.1401 25.3927L11.3735 25.6228C11.4333 25.6839 11.5149 25.7188 11.6003 25.72C11.6647 25.7204 11.7277 25.7016 11.7814 25.666C11.835 25.6304 11.8769 25.5797 11.9015 25.5202C11.9262 25.4608 11.9327 25.3953 11.92 25.3322C11.9073 25.2691 11.8762 25.2112 11.8304 25.1658ZM11.7951 26.3585C11.7364 26.3082 11.6616 26.2806 11.5843 26.2806C11.507 26.2806 11.4323 26.3082 11.3736 26.3585L11.1402 26.5886C11.11 26.6186 11.086 26.6542 11.0695 26.6935C11.0531 26.7327 11.0445 26.7748 11.0443 26.8174C11.0442 26.86 11.0524 26.9022 11.0685 26.9415C11.0846 26.9809 11.1084 27.0168 11.1383 27.047L11.1402 27.0488C11.1702 27.0791 11.2058 27.1031 11.2451 27.1195C11.2843 27.136 11.3264 27.1445 11.369 27.1447C11.4116 27.1449 11.4537 27.1367 11.4931 27.1205C11.5325 27.1044 11.5683 27.0807 11.5986 27.0507L11.6004 27.0488L11.8305 26.8155C11.8582 26.7832 11.8793 26.7457 11.8925 26.7052C11.9057 26.6648 11.9108 26.6221 11.9075 26.5797C11.9042 26.5372 11.8926 26.4959 11.8733 26.4579C11.854 26.42 11.8275 26.3862 11.7951 26.3585ZM13.2049 24.9357C13.1462 24.8854 13.0714 24.8578 12.9941 24.8578C12.9168 24.8578 12.842 24.8854 12.7833 24.9357L12.5532 25.1658C12.4928 25.2266 12.4589 25.3087 12.4589 25.3943C12.4589 25.4799 12.4928 25.5621 12.5532 25.6228C12.613 25.6839 12.6946 25.7188 12.7801 25.72C12.8229 25.7199 12.8654 25.7112 12.9049 25.6945C12.9443 25.6778 12.9801 25.6534 13.0102 25.6228L13.2403 25.3927C13.2962 25.3274 13.3239 25.2426 13.3172 25.1569C13.3106 25.0712 13.2702 24.9916 13.2049 24.9357ZM20.607 26.5886L20.3769 26.3585C20.3469 26.3283 20.3113 26.3043 20.272 26.2878C20.2328 26.2714 20.1906 26.2628 20.1481 26.2626C20.1055 26.2625 20.0633 26.2707 20.024 26.2868C19.9846 26.3029 19.9487 26.3267 19.9185 26.3566L19.9167 26.3585C19.8563 26.4192 19.8224 26.5014 19.8224 26.587C19.8224 26.6726 19.8563 26.7548 19.9167 26.8155L20.15 27.0488C20.1802 27.0788 20.2161 27.1026 20.2555 27.1188C20.2949 27.1349 20.3371 27.1432 20.3796 27.143C20.4222 27.1429 20.4644 27.1343 20.5036 27.1179C20.5429 27.1014 20.5786 27.0774 20.6086 27.0472C20.6386 27.017 20.6624 26.9812 20.6785 26.9418C20.6947 26.9024 20.7029 26.8602 20.7028 26.8176C20.7026 26.775 20.6941 26.7329 20.6776 26.6936C20.6612 26.6543 20.6372 26.6186 20.607 26.5886ZM19.1842 25.1658L18.9508 24.9357C18.9231 24.8977 18.8874 24.8663 18.8462 24.8435C18.805 24.8207 18.7594 24.8071 18.7124 24.8038C18.6655 24.8004 18.6184 24.8073 18.5744 24.824C18.5304 24.8407 18.4905 24.8667 18.4576 24.9004C18.4247 24.934 18.3995 24.9744 18.3838 25.0187C18.3681 25.0631 18.3622 25.1103 18.3666 25.1572C18.3709 25.204 18.3855 25.2494 18.4091 25.29C18.4328 25.3307 18.465 25.3657 18.5036 25.3927L18.724 25.6228C18.785 25.6819 18.8667 25.7147 18.9517 25.7142C19.0366 25.7137 19.1179 25.6799 19.1782 25.62C19.2385 25.5602 19.2729 25.4791 19.274 25.3942C19.2751 25.3092 19.2429 25.2272 19.1842 25.1658ZM19.1842 26.3488C19.1224 26.289 19.0394 26.2563 18.9535 26.2577C18.8675 26.2592 18.7857 26.2947 18.7259 26.3565L18.724 26.3585L18.4939 26.5886C18.4475 26.6514 18.4253 26.7287 18.4314 26.8065C18.4375 26.8843 18.4714 26.9573 18.527 27.0121C18.5825 27.0668 18.656 27.0997 18.7339 27.1047C18.8117 27.1097 18.8888 27.0864 18.9508 27.0391L19.1842 26.8058C19.2446 26.745 19.2784 26.6629 19.2784 26.5773C19.2784 26.4917 19.2446 26.4095 19.1842 26.3488ZM20.5717 24.9357C20.5129 24.8854 20.4382 24.8578 20.3608 24.8578C20.2835 24.8578 20.2087 24.8854 20.15 24.9357L19.9167 25.1658C19.871 25.2112 19.8398 25.2691 19.8271 25.3322C19.8145 25.3953 19.8209 25.4608 19.8456 25.5202C19.8702 25.5797 19.9121 25.6304 19.9657 25.666C20.0194 25.7016 20.0824 25.7204 20.1468 25.72C20.1896 25.7199 20.2321 25.7112 20.2716 25.6945C20.3111 25.6778 20.3469 25.6534 20.3769 25.6228L20.607 25.3927C20.6629 25.3274 20.6906 25.2426 20.684 25.1569C20.6773 25.0712 20.6369 24.9916 20.5717 24.9357ZM27.9756 26.5905L27.9737 26.5886L27.7404 26.3585C27.6784 26.3054 27.5986 26.2777 27.517 26.2808C27.4355 26.284 27.3581 26.3178 27.3004 26.3755C27.2426 26.4332 27.2088 26.5106 27.2057 26.5922C27.2025 26.6737 27.2303 26.7535 27.2834 26.8155L27.5135 27.0488C27.5435 27.0791 27.5791 27.1031 27.6183 27.1195C27.6576 27.136 27.6997 27.1445 27.7423 27.1447C27.7848 27.1449 27.827 27.1367 27.8664 27.1205C27.9058 27.1044 27.9416 27.0807 27.9718 27.0507L27.9737 27.0488C28.0039 27.0189 28.0279 26.9832 28.0444 26.944C28.0608 26.9047 28.0694 26.8626 28.0696 26.82C28.0697 26.7775 28.0615 26.7353 28.0454 26.6959C28.0293 26.6565 28.0055 26.6207 27.9756 26.5905ZM26.5477 25.1658L26.3176 24.9357C26.2556 24.8826 26.1758 24.8549 26.0942 24.858C26.0127 24.8612 25.9353 24.895 25.8776 24.9527C25.8199 25.0104 25.7861 25.0878 25.7829 25.1694C25.7797 25.2509 25.8075 25.3307 25.8606 25.3927L26.0907 25.6228C26.1207 25.6534 26.1565 25.6778 26.196 25.6945C26.2355 25.7112 26.2779 25.7199 26.3208 25.72C26.4063 25.7188 26.4878 25.6839 26.5477 25.6228C26.608 25.5621 26.6419 25.4799 26.6419 25.3943C26.6419 25.3087 26.608 25.2266 26.5477 25.1658ZM26.5123 26.3488C26.4536 26.2985 26.3788 26.2708 26.3015 26.2708C26.2242 26.2708 26.1494 26.2985 26.0907 26.3488V26.3585L25.8606 26.5886C25.8142 26.6514 25.792 26.7287 25.7981 26.8065C25.8042 26.8843 25.8381 26.9573 25.8937 27.0121C25.9492 27.0668 26.0227 27.0997 26.1006 27.1047C26.1784 27.1097 26.2555 27.0864 26.3176 27.0391L26.5477 26.8058C26.6036 26.7405 26.6313 26.6557 26.6247 26.57C26.618 26.4843 26.5776 26.4047 26.5123 26.3488ZM27.9737 24.9357C27.9437 24.9055 27.9081 24.8815 27.8688 24.865C27.8296 24.8486 27.7875 24.84 27.7449 24.8399C27.7023 24.8397 27.6602 24.8479 27.6208 24.864C27.5814 24.8802 27.5456 24.9039 27.5153 24.9339L27.5135 24.9357L27.2834 25.1658C27.2377 25.2112 27.2065 25.2691 27.1938 25.3322C27.1812 25.3953 27.1876 25.4608 27.2123 25.5202C27.237 25.5797 27.2788 25.6304 27.3324 25.666C27.3861 25.7016 27.4491 25.7204 27.5135 25.72C27.599 25.7188 27.6805 25.6839 27.7404 25.6228L27.9737 25.3927C28.0341 25.332 28.0679 25.2498 28.0679 25.1642C28.0679 25.0786 28.0341 24.9964 27.9737 24.9357ZM36.3289 8.65959H33.1495C33.0658 8.66294 32.9867 8.69856 32.9287 8.75898C32.8707 8.8194 32.8383 8.89993 32.8384 8.98369C32.8384 9.06965 32.8725 9.15208 32.9333 9.21286C32.9941 9.27364 33.0765 9.30779 33.1625 9.30779H36.3289C36.4149 9.30779 36.4973 9.27364 36.5581 9.21286C36.6189 9.15208 36.653 9.06965 36.653 8.98369C36.653 8.89773 36.6189 8.8153 36.5581 8.75452C36.4973 8.69374 36.4149 8.65959 36.3289 8.65959ZM31.2795 8.65959H30.573C30.487 8.65959 30.4046 8.69374 30.3438 8.75452C30.283 8.8153 30.2489 8.89773 30.2489 8.98369C30.2489 9.06965 30.283 9.15208 30.3438 9.21286C30.4046 9.27364 30.487 9.30779 30.573 9.30779H31.2795C31.3654 9.30779 31.4479 9.27364 31.5087 9.21286C31.5694 9.15208 31.6036 9.06965 31.6036 8.98369C31.6036 8.89773 31.5694 8.8153 31.5087 8.75452C31.4479 8.69374 31.3654 8.65959 31.2795 8.65959Z" fill="black"/>
</g>
</g>
</g>
<defs>
<clipPath id="clip0_1_1930">
<rect width="40" height="40" fill="white" transform="translate(0.5 0.55127)"/>
</clipPath>
<clipPath id="clip1_1_1930">
<rect width="40" height="40" fill="white" transform="translate(0.5 0.55127)"/>
</clipPath>
<clipPath id="clip2_1_1930">
<rect width="40" height="40" fill="white" transform="translate(0.5 0.55127)"/>
</clipPath>
</defs>
</svg>
