<svg width="41" height="41" viewBox="0 0 41 41" fill="none" xmlns="http://www.w3.org/2000/svg">
<g clip-path="url(#clip0_1_1896)">
<g clip-path="url(#clip1_1_1896)">
<g clip-path="url(#clip2_1_1896)">
<path d="M24.7048 39.8764H15.0753C14.9879 39.8764 14.9042 39.9111 14.8425 39.9728C14.7807 40.0346 14.746 40.1183 14.746 40.2056C14.746 40.2929 14.7807 40.3767 14.8425 40.4384C14.9042 40.5002 14.9879 40.5348 15.0753 40.5348H24.7048C24.7921 40.5348 24.8758 40.5002 24.9376 40.4384C24.9993 40.3767 25.034 40.2929 25.034 40.2056C25.034 40.1183 24.9993 40.0346 24.9376 39.9728C24.8758 39.9111 24.7921 39.8764 24.7048 39.8764ZM13.2909 39.8764H11.7271C11.6398 39.8764 11.5561 39.9111 11.4944 39.9728C11.4326 40.0346 11.3979 40.1183 11.3979 40.2056C11.3979 40.2929 11.4326 40.3767 11.4944 40.4384C11.5561 40.5002 11.6398 40.5348 11.7271 40.5348H13.2909C13.3782 40.5348 13.462 40.5002 13.5237 40.4384C13.5854 40.3767 13.6201 40.2929 13.6201 40.2056C13.6201 40.1183 13.5854 40.0346 13.5237 39.9728C13.462 39.9111 13.3782 39.8764 13.2909 39.8764ZM38.2816 39.8764H35.2265C35.3871 39.6533 35.4829 39.3901 35.503 39.1159L35.9014 33.0814C36.3905 33.0218 36.7387 32.5769 36.679 32.0878C36.6527 31.8725 36.5489 31.6741 36.387 31.5298C36.2251 31.3855 36.0162 31.3051 35.7993 31.3037H32.8364V29.8815C34.8606 29.7925 36.4299 28.0802 36.3425 26.056C36.3425 25.9687 36.3078 25.8849 36.2461 25.8232C36.1844 25.7615 36.1006 25.7268 36.0133 25.7268C35.5043 25.7055 34.9964 25.7899 34.5216 25.9747C34.0468 26.1594 33.6154 26.4404 33.2545 26.8C33.0938 26.961 32.9493 27.1374 32.8232 27.3268V25.6807C34.8458 25.5899 36.4145 23.8814 36.3327 21.8585C36.3327 21.7712 36.298 21.6874 36.2362 21.6257C36.1745 21.564 36.0907 21.5293 36.0034 21.5293C35.4959 21.5112 34.9901 21.598 34.5176 21.7844C34.0452 21.9708 33.6163 22.2527 33.2578 22.6124C33.0971 22.7734 32.9526 22.9498 32.8265 23.1391V22.2634C34.2588 20.8287 34.2569 18.5045 32.8222 17.0722C32.7849 17.035 32.7468 16.9986 32.708 16.9631C32.6471 16.9066 32.5672 16.8752 32.4841 16.8752C32.4011 16.8752 32.3211 16.9066 32.2603 16.9631C30.7652 18.3323 30.6632 20.6542 32.0324 22.1493C32.0763 22.1973 32.1216 22.2442 32.1681 22.2898V23.1194C32.0433 22.9379 31.9023 22.7682 31.7467 22.6124C31.3867 22.251 30.9556 21.9681 30.4808 21.7817C30.0059 21.5953 29.4976 21.5093 28.9879 21.5293C28.9006 21.5293 28.8168 21.564 28.7551 21.6257C28.6933 21.6874 28.6587 21.7712 28.6587 21.8585C28.5768 23.8814 30.1456 25.5899 32.1681 25.6807V27.3268C31.8174 26.8132 31.3409 26.398 30.7842 26.1208C30.2275 25.8436 29.6091 25.7136 28.9879 25.7432C28.9006 25.7432 28.8168 25.7779 28.7551 25.8397C28.6933 25.9014 28.6587 25.9851 28.6587 26.0724C28.5806 28.0916 30.1493 29.7941 32.1681 29.8815V31.3037H29.2052C28.7124 31.307 28.3157 31.7091 28.319 32.2018C28.3204 32.4186 28.4008 32.6276 28.5451 32.7895C28.6895 32.9514 28.8878 33.0552 29.1031 33.0814L29.5014 39.1159C29.5216 39.3901 29.6173 39.6533 29.778 39.8764H27.0883C27.001 39.8764 26.9173 39.9111 26.8555 39.9728C26.7938 40.0346 26.7591 40.1183 26.7591 40.2056C26.7591 40.2929 26.7938 40.3767 26.8555 40.4384C26.9173 40.5002 27.001 40.5348 27.0883 40.5348H38.2816C38.3689 40.5348 38.4527 40.5002 38.5144 40.4384C38.5761 40.3767 38.6108 40.2929 38.6108 40.2056C38.6108 40.1183 38.5761 40.0346 38.5144 39.9728C38.4527 39.9111 38.3689 39.8764 38.2816 39.8764ZM33.722 27.2774H33.7319C34.2514 26.7553 34.9455 26.4435 35.6808 26.4017C35.5843 27.9212 34.3724 29.1315 32.8529 29.2263C32.8948 28.4923 33.2039 27.799 33.722 27.2774ZM35.6709 22.1877C35.6334 22.9325 35.3201 23.6366 34.7919 24.163L34.7985 24.1465C34.2787 24.6688 33.5851 24.9816 32.8496 25.0255C32.9394 23.5033 34.1492 22.2864 35.6709 22.1877ZM30.2126 24.163C29.6844 23.6366 29.3711 22.9325 29.3335 22.1877C30.8543 22.2827 32.0665 23.4949 32.1615 25.0157C31.4296 24.9789 30.7363 24.6756 30.2126 24.163ZM30.2126 28.3473V28.3638C29.6903 27.8454 29.3774 27.1527 29.3335 26.4181C30.8544 26.5101 32.0678 27.722 32.1615 29.2428C31.4228 29.1982 30.7276 28.8787 30.2126 28.3473ZM32.494 17.6742C33.504 18.8162 33.504 20.5321 32.494 21.6741C31.484 20.5322 31.484 18.8162 32.494 17.6742ZM34.0281 39.8402C33.9776 39.8401 33.9278 39.8526 33.8833 39.8764H31.1212C31.0766 39.8526 31.0269 39.8401 30.9763 39.8402C30.7677 39.839 30.5672 39.7589 30.4151 39.616C30.2631 39.4732 30.1707 39.278 30.1566 39.0698L29.7615 33.088H30.0907C30.1781 33.088 30.2618 33.0533 30.3235 32.9916C30.3853 32.9298 30.42 32.8461 30.42 32.7588C30.42 32.6715 30.3853 32.5877 30.3235 32.526C30.2618 32.4643 30.1781 32.4296 30.0907 32.4296H29.2019C29.1712 32.4296 29.1408 32.4236 29.1124 32.4119C29.084 32.4002 29.0582 32.383 29.0365 32.3614C29.0147 32.3397 28.9975 32.3139 28.9857 32.2856C28.9739 32.2573 28.9678 32.2269 28.9678 32.1962C28.9677 32.1655 28.9737 32.1351 28.9855 32.1067C28.9972 32.0783 29.0143 32.0525 29.036 32.0308C29.0577 32.0091 29.0834 31.9918 29.1118 31.98C29.1401 31.9682 29.1705 31.9621 29.2012 31.9621H35.7862C35.8183 31.9598 35.8505 31.9642 35.8807 31.9749C35.911 31.9857 35.9388 32.0025 35.9623 32.0245C35.9857 32.0464 36.0045 32.0729 36.0172 32.1024C36.03 32.1319 36.0365 32.1637 36.0364 32.1958C36.0356 32.2576 36.0107 32.3165 35.967 32.3602C35.9234 32.4038 35.8644 32.4287 35.8027 32.4296H31.5822C31.4949 32.4296 31.4111 32.4643 31.3494 32.526C31.2876 32.5877 31.253 32.6715 31.253 32.7588C31.253 32.8461 31.2876 32.9298 31.3494 32.9916C31.4111 33.0533 31.4949 33.088 31.5822 33.088H35.2463L34.848 39.0698C34.8338 39.278 34.7415 39.4732 34.5894 39.6161C34.4373 39.759 34.2368 39.839 34.0281 39.8402ZM16.6654 27.9194H13.2909C13.2036 27.9194 13.1199 27.9541 13.0581 28.0158C12.9964 28.0776 12.9617 28.1613 12.9617 28.2486C12.9617 28.336 12.9964 28.4197 13.0581 28.4814C13.1199 28.5432 13.2036 28.5779 13.2909 28.5779H16.6654C16.7527 28.5779 16.8364 28.5432 16.8982 28.4814C16.9599 28.4197 16.9946 28.336 16.9946 28.2486C16.9946 28.1613 16.9599 28.0776 16.8982 28.0158C16.8364 27.9541 16.7527 27.9194 16.6654 27.9194ZM10.4893 34.6156H9.91646C9.82915 34.6156 9.74541 34.6503 9.68367 34.712C9.62193 34.7737 9.58725 34.8575 9.58725 34.9448C9.58725 35.0321 9.62193 35.1158 9.68367 35.1776C9.74541 35.2393 9.82915 35.274 9.91646 35.274H10.4893C10.5766 35.274 10.6603 35.2393 10.7221 35.1776C10.7838 35.1158 10.8185 35.0321 10.8185 34.9448C10.8185 34.8575 10.7838 34.7737 10.7221 34.712C10.6603 34.6503 10.5766 34.6156 10.4893 34.6156ZM8.53047 34.6156H6.78234C6.69503 34.6156 6.61129 34.6503 6.54955 34.712C6.48781 34.7737 6.45312 34.8575 6.45312 34.9448C6.45312 35.0321 6.48781 35.1158 6.54955 35.1776C6.61129 35.2393 6.69503 35.274 6.78234 35.274H8.53047C8.61778 35.274 8.70152 35.2393 8.76326 35.1776C8.825 35.1158 8.85968 35.0321 8.85968 34.9448C8.85968 34.8575 8.825 34.7737 8.76326 34.712C8.70152 34.6503 8.61778 34.6156 8.53047 34.6156Z" fill="black"/>
<path d="M35.8355 13.5327H31.424V5.98705H35.4569C35.5442 5.98705 35.628 5.95237 35.6897 5.89063C35.7514 5.82889 35.7861 5.74515 35.7861 5.65784C35.7861 5.57053 35.7514 5.48679 35.6897 5.42505C35.628 5.36331 35.5442 5.32862 35.4569 5.32862H31.424V1.21344H35.4569C35.5442 1.21344 35.628 1.17876 35.6897 1.11702C35.7514 1.05528 35.7861 0.971539 35.7861 0.884226C35.7861 0.796913 35.7514 0.713176 35.6897 0.651436C35.628 0.589696 35.5442 0.555011 35.4569 0.555011H31.1277C31.0825 0.547875 31.0363 0.550973 30.9924 0.564077C30.9485 0.577181 30.9081 0.599958 30.8742 0.630731L3.00621 24.7062C2.26515 25.3419 2.1798 26.458 2.8156 27.1991C2.96115 27.3687 3.13754 27.5092 3.33543 27.6132H3.3453C3.63196 27.7625 3.95397 27.8307 4.27656 27.8104C4.59915 27.7901 4.91007 27.6821 5.17574 27.4979C5.24765 27.4484 5.29695 27.3724 5.31278 27.2865C5.32862 27.2006 5.3097 27.112 5.26018 27.0401L5.25804 27.037C5.20819 26.9655 5.13203 26.9167 5.04625 26.9013C4.96047 26.8859 4.87207 26.9051 4.80043 26.9547C4.29467 27.3039 3.60168 27.1769 3.25255 26.6711C3.12563 26.4873 3.057 26.2695 3.05559 26.0461C3.05547 25.8862 3.08981 25.7281 3.15628 25.5827C3.22275 25.4373 3.31978 25.3079 3.44077 25.2033L8.47117 20.8709V32.8246H3.71402C3.62671 32.8246 3.54297 32.8593 3.48123 32.9211C3.41949 32.9828 3.38481 33.0665 3.38481 33.1539C3.38481 33.2412 3.41949 33.3249 3.48123 33.3866C3.54297 33.4484 3.62671 33.4831 3.71402 33.4831H4.37245V40.2221C4.37245 40.3094 4.40714 40.3931 4.46888 40.4549C4.53062 40.5166 4.61435 40.5513 4.70167 40.5513H10.1337C10.221 40.5513 10.3048 40.5166 10.3665 40.4549C10.4282 40.3931 10.4629 40.3094 10.4629 40.2221C10.4629 40.1348 10.4282 40.051 10.3665 39.9893C10.3048 39.9276 10.221 39.8929 10.1337 39.8929H5.03088V33.4666H11.8423C11.9296 33.4666 12.0134 33.4319 12.0751 33.3702C12.1369 33.3084 12.1715 33.2247 12.1715 33.1374V27.0403H19.8027C19.8901 27.0403 19.9738 27.0057 20.0355 26.9439C20.0973 26.8822 20.132 26.7984 20.132 26.7111V20.6141H27.0158C27.1032 20.6141 27.1869 20.5794 27.2486 20.5176C27.3104 20.4559 27.3451 20.3722 27.3451 20.2848V14.1911H35.5063V20.6272C35.5063 20.7145 35.541 20.7983 35.6027 20.86C35.6645 20.9218 35.7482 20.9564 35.8355 20.9564C35.9228 20.9564 36.0065 20.9218 36.0683 20.86C36.13 20.7983 36.1647 20.7145 36.1647 20.6272V13.8619C36.1647 13.7746 36.13 13.6908 36.0683 13.6291C36.0065 13.5673 35.9228 13.5327 35.8355 13.5327ZM15.895 26.3819H10.8349C10.7476 26.3819 10.6639 26.4166 10.6021 26.4783C10.5404 26.5401 10.5057 26.6238 10.5057 26.7111C10.5057 26.7984 10.5404 26.8822 10.6021 26.9439C10.6639 27.0057 10.7476 27.0403 10.8349 27.0403H11.5131V32.8082H9.1296V25.065L15.895 19.2248V26.3819ZM15.895 18.3425L9.1296 24.1926V20.2848L15.895 14.4347V18.3425ZM23.3352 19.9557H18.7953C18.708 19.9557 18.6243 19.9904 18.5626 20.0521C18.5008 20.1139 18.4661 20.1976 18.4661 20.2849C18.4661 20.3722 18.5008 20.456 18.5626 20.5177C18.6243 20.5795 18.708 20.6141 18.7953 20.6141H19.4735V26.382H16.5534V18.6454L23.3352 12.7953V19.9557ZM23.3352 11.9262L16.5534 17.7763V13.8652L23.3352 8.03156V11.9262ZM30.7656 13.5327L27.0224 13.5425H26.0216C25.9343 13.5425 25.8506 13.5772 25.7888 13.639C25.7271 13.7007 25.6924 13.7844 25.6924 13.8717C25.6924 13.9591 25.7271 14.0428 25.7888 14.1045C25.8506 14.1663 25.9343 14.201 26.0216 14.201H26.68V19.9556H23.9936V12.2257L30.7656 6.3854V13.5327ZM30.7656 5.50648L23.9936 11.3566V7.44556L30.7656 1.59541V5.50648Z" fill="black"/>
</g>
</g>
</g>
<defs>
<clipPath id="clip0_1_1896">
<rect width="40" height="40" fill="white" transform="translate(0.5 0.55127)"/>
</clipPath>
<clipPath id="clip1_1_1896">
<rect width="40" height="40" fill="white" transform="translate(0.5 0.55127)"/>
</clipPath>
<clipPath id="clip2_1_1896">
<rect width="40" height="40" fill="white" transform="translate(0.5 0.55127)"/>
</clipPath>
</defs>
</svg>
