<svg width="41" height="41" viewBox="0 0 41 41" fill="none" xmlns="http://www.w3.org/2000/svg">
<g clip-path="url(#clip0_1_1941)">
<g clip-path="url(#clip1_1_1941)">
<g clip-path="url(#clip2_1_1941)">
<path d="M40.1762 26.0959H34.7529V20.9769C34.7529 20.891 34.7188 20.8087 34.658 20.748C34.5973 20.6873 34.515 20.6531 34.4291 20.6531H21.3515L27.1796 18.2053C28.0523 17.8403 28.4638 16.837 28.0988 15.9642C28.0122 15.7573 27.8858 15.5693 27.7268 15.4111L25.496 13.177L26.4252 12.2478L26.9465 12.7691C26.9767 12.7991 27.0126 12.8228 27.0521 12.8389C27.0915 12.855 27.1338 12.8632 27.1764 12.8629C27.219 12.8632 27.2612 12.855 27.3007 12.8389C27.3401 12.8228 27.376 12.7991 27.4063 12.7691L33.4383 6.737C34.1632 6.0093 34.1632 4.83235 33.4383 4.10465L33.3412 4.00752C32.6135 3.28265 31.4365 3.28265 30.7088 4.00752L24.6768 10.0266C24.6165 10.0873 24.5826 10.1693 24.5826 10.2549C24.5826 10.3404 24.6165 10.4225 24.6768 10.4832L25.1851 10.9915L24.2559 11.924L22.0218 9.68989C21.3508 9.02047 20.2643 9.02176 19.5949 9.69264C19.4382 9.84974 19.3135 10.0357 19.2275 10.2403L14.8597 20.6531H5.20131C5.11544 20.6531 5.03308 20.6873 4.97236 20.748C4.91164 20.8087 4.87753 20.891 4.87753 20.9769C4.87753 21.0628 4.91164 21.1451 4.97236 21.2059C5.03308 21.2666 5.11544 21.3007 5.20131 21.3007H11.7061V26.0959H1.14756V21.3007H3.02226C3.10813 21.3007 3.19049 21.2666 3.25121 21.2059C3.31193 21.1451 3.34604 21.0628 3.34604 20.9769C3.34604 20.891 3.31193 20.8087 3.25121 20.748C3.19049 20.6873 3.10813 20.6531 3.02226 20.6531H0.823782C0.737909 20.6531 0.655554 20.6873 0.594833 20.748C0.534113 20.8087 0.5 20.891 0.5 20.9769L0.5 26.4197C0.5 26.5056 0.534113 26.5879 0.594833 26.6486C0.655554 26.7094 0.737909 26.7435 0.823782 26.7435H6.26008V31.5484H0.823782C0.737909 31.5484 0.655554 31.5825 0.594833 31.6432C0.534113 31.7039 0.5 31.7863 0.5 31.8722L0.5 37.3149C0.502526 37.3991 0.537751 37.479 0.5982 37.5376C0.65865 37.5963 0.739566 37.6291 0.823782 37.629H29.1547C29.2406 37.629 29.3229 37.5949 29.3836 37.5342C29.4444 37.4735 29.4785 37.3911 29.4785 37.3052C29.4785 37.2194 29.4444 37.137 29.3836 37.0763C29.3229 37.0156 29.2406 36.9815 29.1547 36.9815H23.5597V32.196H34.1053V36.9912H31.3888C31.3029 36.9912 31.2206 37.0253 31.1598 37.086C31.0991 37.1467 31.065 37.2291 31.065 37.3149C31.065 37.4008 31.0991 37.4832 31.1598 37.5439C31.2206 37.6046 31.3029 37.6387 31.3888 37.6387H34.4291C34.515 37.6387 34.5973 37.6046 34.658 37.5439C34.7188 37.4832 34.7529 37.4008 34.7529 37.3149V32.196H40.1762C40.2621 32.196 40.3444 32.1618 40.4052 32.1011C40.4659 32.0404 40.5 31.958 40.5 31.8722V26.4197C40.5 26.3338 40.4659 26.2515 40.4052 26.1907C40.3444 26.13 40.2621 26.0959 40.1762 26.0959ZM23.5597 21.3007H34.1053V26.0959H23.5597V21.3007ZM31.1654 4.4511C31.6412 3.97902 32.4088 3.97902 32.8847 4.4511L32.9785 4.54823C33.4506 5.02411 33.4506 5.79164 32.9785 6.26751L27.1764 12.0697L25.8813 10.7746L25.3632 10.2565L31.1654 4.4511ZM25.687 11.4513L25.9816 11.7977L24.8225 12.9536L22.7729 15.0129C22.7291 15.0541 22.6712 15.077 22.6111 15.077C22.5509 15.077 22.493 15.0541 22.4492 15.0129C22.4087 14.9687 22.3862 14.9109 22.3862 14.851C22.3862 14.791 22.4087 14.7333 22.4492 14.6891L25.687 11.4513ZM14.8209 22.4372L19.8298 10.5026C20.0584 9.95863 20.6849 9.703 21.2288 9.93175C21.3571 9.98567 21.4735 10.0641 21.5717 10.1626L23.8026 12.3935L21.9667 14.2293C21.6198 14.5762 21.6198 15.1386 21.9667 15.4856C22.3137 15.8325 22.8761 15.8325 23.223 15.4856L25.0394 13.6368L27.2703 15.8676C27.6866 16.2859 27.685 16.9624 27.2667 17.3787C27.1692 17.4758 27.0539 17.5531 26.9271 17.6064L19.6161 20.679L15.0022 22.6185C14.9769 22.6297 14.9487 22.6329 14.9215 22.6277C14.8943 22.6225 14.8694 22.6091 14.85 22.5894C14.8294 22.5705 14.8154 22.5455 14.8102 22.5181C14.8049 22.4907 14.8087 22.4623 14.8209 22.4372ZM12.3537 21.3007H14.5877L14.2154 22.1879C14.1554 22.3317 14.1397 22.4902 14.1703 22.6431C14.2008 22.7959 14.2763 22.9362 14.387 23.0459C14.4956 23.1584 14.6361 23.2348 14.7895 23.2649C14.943 23.295 15.102 23.2773 15.245 23.2143L19.8071 21.3007H22.9122V26.0959H12.3537V21.3007ZM6.90764 26.7435H17.4532V31.5484H6.90764V26.7435ZM11.7061 36.9912H1.14756V32.196H11.7061V36.9912ZM22.9122 36.9912H12.3537V32.196H22.9122V36.9912ZM28.6593 31.5484H18.1008V26.7435L23.236 26.7532H28.6593V31.5484ZM39.8654 31.5484H29.3069V26.7435H39.8654V31.5484Z" fill="black"/>
<path d="M31.5801 6.46166C31.5215 6.41141 31.4468 6.38379 31.3695 6.38379C31.2923 6.38379 31.2176 6.41141 31.1589 6.46166L29.7958 7.82478C29.7355 7.88544 29.7016 7.96751 29.7016 8.05304C29.7016 8.13858 29.7355 8.22065 29.7958 8.28131C29.826 8.31132 29.8619 8.33506 29.9014 8.35117C29.9408 8.36729 29.9831 8.37545 30.0257 8.37521C30.1106 8.37486 30.192 8.34113 30.2523 8.28131L31.6154 6.91819C31.6713 6.85297 31.699 6.76823 31.6923 6.68261C31.6857 6.597 31.6454 6.51752 31.5801 6.46166ZM28.9313 9.46959C28.9302 9.46959 28.9293 9.46927 28.9282 9.46927C28.9271 9.46927 28.9259 9.46959 28.9248 9.46959H28.9313Z" fill="black"/>
<path d="M29.3135 8.69874C29.2577 8.65629 29.1897 8.63307 29.1196 8.63258C29.0496 8.63208 28.9812 8.65433 28.9249 8.69599L28.7047 8.91616C28.6594 8.96102 28.6283 9.01829 28.6154 9.08076C28.6026 9.14323 28.6084 9.20811 28.6323 9.26724C28.6562 9.32638 28.6971 9.37713 28.7497 9.41312C28.8024 9.44911 28.8645 9.46872 28.9283 9.4695C29.0131 9.46922 29.0945 9.43562 29.1548 9.37593L29.3749 9.15252C29.4007 9.11869 29.4195 9.08012 29.4304 9.03901C29.4413 8.99789 29.4439 8.95504 29.4382 8.91291C29.4325 8.87077 29.4186 8.83017 29.3972 8.79342C29.3758 8.75667 29.3473 8.7245 29.3135 8.69874ZM21.1994 35.6734H17.544C17.4581 35.6734 17.3757 35.7075 17.315 35.7682C17.2543 35.829 17.2202 35.9113 17.2202 35.9972C17.2202 36.0831 17.2543 36.1654 17.315 36.2261C17.3757 36.2869 17.4581 36.321 17.544 36.321H21.1994C21.2853 36.321 21.3677 36.2869 21.4284 36.2261C21.4891 36.1654 21.5232 36.0831 21.5232 35.9972C21.5232 35.9113 21.4891 35.829 21.4284 35.7682C21.3677 35.7075 21.2853 35.6734 21.1994 35.6734ZM7.82403 27.8962C7.73815 27.8962 7.6558 27.9303 7.59508 27.991C7.53436 28.0517 7.50024 28.1341 7.50024 28.2199V30.4864C7.50024 30.5723 7.53436 30.6546 7.59508 30.7154C7.6558 30.7761 7.73815 30.8102 7.82403 30.8102C7.9099 30.8102 7.99225 30.7761 8.05297 30.7154C8.11369 30.6546 8.14781 30.5723 8.14781 30.4864V28.2199C8.14781 28.1341 8.11369 28.0517 8.05297 27.991C7.99225 27.9303 7.9099 27.8962 7.82403 27.8962ZM30.7057 22.2332H28.5428C28.4569 22.2332 28.3746 22.2673 28.3139 22.3281C28.2532 22.3888 28.219 22.4711 28.219 22.557C28.219 22.6429 28.2532 22.7252 28.3139 22.786C28.3746 22.8467 28.4569 22.8808 28.5428 22.8808H30.7057C30.7916 22.8808 30.8739 22.8467 30.9346 22.786C30.9954 22.7252 31.0295 22.6429 31.0295 22.557C31.0295 22.4711 30.9954 22.3888 30.9346 22.3281C30.8739 22.2673 30.7916 22.2332 30.7057 22.2332ZM32.6451 22.2332H32.085C31.9991 22.2332 31.9168 22.2673 31.856 22.3281C31.7953 22.3888 31.7612 22.4711 31.7612 22.557C31.7612 22.6429 31.7953 22.7252 31.856 22.786C31.9168 22.8467 31.9991 22.8808 32.085 22.8808H32.6451C32.731 22.8808 32.8134 22.8467 32.8741 22.786C32.9348 22.7252 32.9689 22.6429 32.9689 22.557C32.9689 22.4711 32.9348 22.3888 32.8741 22.3281C32.8134 22.2673 32.731 22.2332 32.6451 22.2332Z" fill="black"/>
</g>
</g>
</g>
<defs>
<clipPath id="clip0_1_1941">
<rect width="40" height="40" fill="white" transform="translate(0.5 0.55127)"/>
</clipPath>
<clipPath id="clip1_1_1941">
<rect width="40" height="40" fill="white" transform="translate(0.5 0.55127)"/>
</clipPath>
<clipPath id="clip2_1_1941">
<rect width="40" height="40" fill="white" transform="translate(0.5 0.55127)"/>
</clipPath>
</defs>
</svg>
