<svg width="25" height="25" viewBox="0 0 25 25" fill="none" xmlns="http://www.w3.org/2000/svg">
<g clip-path="url(#clip0_1_2134)">
<path d="M7.52997 0.33816C6.25297 0.39816 5.38097 0.60216 4.61997 0.90116C3.81931 1.20356 3.0944 1.67728 2.49597 2.28916C1.88672 2.88933 1.41576 3.61521 1.11597 4.41616C0.820972 5.18016 0.619972 6.05416 0.563972 7.33016C0.507972 8.60816 0.494972 9.01816 0.500972 12.2772C0.507972 15.5362 0.521972 15.9442 0.583972 17.2242C0.644972 18.5012 0.847972 19.3732 1.14697 20.1352C1.45497 20.9242 1.86697 21.5922 2.53497 22.2582C3.1356 22.8678 3.86222 23.3388 4.66397 23.6382C5.42697 23.9332 6.29997 24.1342 7.57697 24.1902C8.85497 24.2462 9.26597 24.2592 12.524 24.2532C15.781 24.2462 16.192 24.2322 17.471 24.1712C18.751 24.1112 19.618 23.9062 20.381 23.6082C21.1812 23.3054 21.9057 22.8317 22.504 22.2202C23.1134 21.6194 23.5844 20.8928 23.884 20.0912C24.179 19.3282 24.38 18.4552 24.435 17.1792C24.491 15.8992 24.505 15.4892 24.498 12.2312C24.492 8.97316 24.478 8.56416 24.417 7.28416C24.357 6.00416 24.153 5.13616 23.853 4.37316C23.5502 3.57321 23.0769 2.84876 22.466 2.25016C21.8659 1.64025 21.1396 1.16921 20.338 0.87016C19.574 0.57616 18.702 0.37416 17.424 0.32016C16.147 0.26316 15.736 0.24816 12.477 0.25416C9.21797 0.26216 8.80997 0.27516 7.52997 0.33816ZM7.66997 22.0312C6.49997 21.9812 5.86497 21.7862 5.44197 21.6232C4.92048 21.4313 4.44835 21.1256 4.05997 20.7282C3.66019 20.3423 3.35256 19.8713 3.15997 19.3502C2.99497 18.9272 2.79697 18.2922 2.74297 17.1222C2.68297 15.8582 2.67097 15.4782 2.66297 12.2742C2.65697 9.07016 2.66897 8.69116 2.72397 7.42616C2.77397 6.25716 2.96997 5.62116 3.13197 5.19816C3.34797 4.63716 3.60897 4.23816 4.02697 3.81616C4.41331 3.41651 4.88461 3.10892 5.40597 2.91616C5.82897 2.75116 6.46297 2.55516 7.63297 2.49916C8.89797 2.43916 9.27697 2.42716 12.481 2.41916C15.684 2.41316 16.064 2.42516 17.331 2.48116C18.499 2.53116 19.135 2.72516 19.558 2.88916C20.118 3.10516 20.518 3.36416 20.94 3.78416C21.361 4.20416 21.621 4.60116 21.84 5.16216C22.005 5.58416 22.202 6.21816 22.257 7.38916C22.317 8.65416 22.331 9.03416 22.337 12.2372C22.342 15.4402 22.331 15.8202 22.276 17.0852C22.225 18.2552 22.031 18.8902 21.868 19.3152C21.652 19.8752 21.391 20.2752 20.972 20.6952C20.5859 21.0947 20.115 21.4023 19.594 21.5952C19.172 21.7602 18.536 21.9572 17.368 22.0132C16.102 22.0732 15.723 22.0852 12.518 22.0922C9.31397 22.0992 8.93597 22.0852 7.66997 22.0312ZM17.453 5.84016C17.4534 6.12501 17.5382 6.40334 17.6968 6.63995C17.8554 6.87655 18.0807 7.06081 18.344 7.1694C18.6073 7.278 18.8969 7.30605 19.1762 7.25002C19.4555 7.19399 19.7119 7.05639 19.913 6.85462C20.114 6.65285 20.2507 6.39599 20.3058 6.11651C20.3609 5.83704 20.3318 5.54751 20.2223 5.28455C20.1128 5.0216 19.9278 4.79703 19.6906 4.63925C19.4534 4.48147 19.1748 4.39757 18.89 4.39816C18.5082 4.39895 18.1424 4.55129 17.873 4.82169C17.6035 5.09209 17.4524 5.45842 17.453 5.84016ZM6.33897 12.2662C6.34215 13.9003 6.99436 15.4662 8.15212 16.6195C9.30988 17.7727 10.8783 18.4188 12.5125 18.4157C14.1466 18.4125 15.7125 17.7603 16.8658 16.6025C18.0191 15.4448 18.6652 13.8763 18.662 12.2422C18.6384 10.6215 17.9773 9.07539 16.8218 7.93878C15.6662 6.80216 14.1094 6.16659 12.4886 6.16975C10.8678 6.1729 9.31348 6.81454 8.16241 7.95564C7.01134 9.09675 6.35622 10.6454 6.33897 12.2662ZM8.49997 12.2622C8.49839 11.471 8.73144 10.6972 9.16965 10.0385C9.60786 9.37986 10.2315 8.86593 10.9618 8.56172C11.6921 8.25751 12.4962 8.17669 13.2725 8.32947C14.0487 8.48226 14.7622 8.8618 15.3227 9.42009C15.8833 9.97838 16.2656 10.6903 16.4215 11.466C16.5774 12.2416 16.4998 13.046 16.1985 13.7775C15.8973 14.509 15.3858 15.1348 14.7289 15.5756C14.072 16.0164 13.2991 16.2526 12.508 16.2542C11.9827 16.2552 11.4623 16.1528 10.9766 15.9527C10.4909 15.7527 10.0494 15.4589 9.6772 15.0882C9.30502 14.7176 9.0095 14.2772 8.80751 13.7923C8.60552 13.3074 8.50102 12.7874 8.49997 12.2622Z" fill="white"/>
</g>
<defs>
<clipPath id="clip0_1_2134">
<rect width="24" height="24" fill="white" transform="translate(0.5 0.253906)"/>
</clipPath>
</defs>
</svg>
