<svg width="25" height="25" viewBox="0 0 25 25" fill="none" xmlns="http://www.w3.org/2000/svg">
<path d="M8.9001 6.30254C9.00516 6.22375 9.12471 6.16642 9.25192 6.13383C9.37913 6.10123 9.51152 6.09402 9.64152 6.11259C9.77152 6.13116 9.8966 6.17516 10.0096 6.24206C10.1226 6.30897 10.2213 6.39748 10.3001 6.50254C10.3789 6.6076 10.4362 6.72715 10.4688 6.85436C10.5014 6.98157 10.5086 7.11396 10.49 7.24396C10.4715 7.37396 10.4275 7.49903 10.3606 7.61203C10.2937 7.72503 10.2052 7.82375 10.1001 7.90254C8.5361 9.07554 7.6401 10.2165 7.1271 11.2125C7.83147 11.0312 8.57483 11.0738 9.25386 11.3345C9.93289 11.5951 10.5138 12.0609 10.916 12.6669C11.3181 13.273 11.5215 13.9892 11.4978 14.7162C11.474 15.4431 11.2244 16.1446 10.7836 16.7232C10.3429 17.3017 9.73277 17.7286 9.0382 17.9444C8.34362 18.1602 7.59907 18.1543 6.90801 17.9275C6.21696 17.7006 5.61374 17.2641 5.18221 16.6786C4.75067 16.0931 4.51226 15.3878 4.5001 14.6605C4.37339 13.4325 4.54775 12.1921 5.0081 11.0465C5.6051 9.54054 6.7721 7.89854 8.9001 6.30254ZM17.9001 6.30254C18.0052 6.22375 18.1247 6.16642 18.2519 6.13383C18.3791 6.10123 18.5115 6.09402 18.6415 6.11259C18.7715 6.13116 18.8966 6.17516 19.0096 6.24206C19.1226 6.30897 19.2213 6.39748 19.3001 6.50254C19.3789 6.6076 19.4362 6.72715 19.4688 6.85436C19.5014 6.98157 19.5086 7.11396 19.4901 7.24396C19.4715 7.37396 19.4275 7.49903 19.3606 7.61203C19.2937 7.72503 19.2052 7.82375 19.1001 7.90254C17.5361 9.07554 16.6401 10.2165 16.1271 11.2125C16.8315 11.0312 17.5748 11.0738 18.2539 11.3345C18.9329 11.5951 19.5138 12.0609 19.916 12.6669C20.3181 13.273 20.5215 13.9892 20.4978 14.7162C20.474 15.4431 20.2244 16.1446 19.7836 16.7232C19.3429 17.3017 18.7328 17.7286 18.0382 17.9444C17.3436 18.1602 16.5991 18.1543 15.908 17.9275C15.217 17.7006 14.6137 17.2641 14.1822 16.6786C13.7507 16.0931 13.5123 15.3878 13.5001 14.6605C13.3734 13.4325 13.5477 12.1921 14.0081 11.0465C14.6061 9.54054 15.7721 7.89854 17.9001 6.30254Z" fill="white"/>
</svg>
