<svg width="25" height="25" viewBox="0 0 25 25" fill="none" xmlns="http://www.w3.org/2000/svg">
<g clip-path="url(#clip0_1_2137)">
<path d="M13.025 0.273906C14.335 0.253906 15.635 0.263906 16.935 0.253906C17.015 1.78391 17.565 3.34391 18.685 4.42391C19.805 5.53391 21.385 6.04391 22.925 6.21391V10.2439C21.485 10.1939 20.035 9.89391 18.725 9.27391C18.155 9.01391 17.625 8.68391 17.105 8.34391C17.095 11.2639 17.115 14.1839 17.085 17.0939C17.005 18.4939 16.545 19.8839 15.735 21.0339C14.425 22.9539 12.155 24.2039 9.825 24.2439C8.395 24.3239 6.965 23.9339 5.745 23.2139C3.725 22.0239 2.305 19.8439 2.095 17.5039C2.075 17.0039 2.065 16.5039 2.085 16.0139C2.265 14.1139 3.205 12.2939 4.665 11.0539C6.325 9.61391 8.645 8.92391 10.815 9.33391C10.835 10.8139 10.775 12.2939 10.775 13.7739C9.785 13.4539 8.625 13.5439 7.755 14.1439C7.125 14.5539 6.645 15.1839 6.395 15.8939C6.185 16.4039 6.245 16.9639 6.255 17.5039C6.495 19.1439 8.075 20.5239 9.755 20.3739C10.875 20.3639 11.945 19.7139 12.525 18.7639C12.715 18.4339 12.925 18.0939 12.935 17.7039C13.035 15.9139 12.995 14.1339 13.005 12.3439C13.015 8.31391 12.995 4.29391 13.025 0.273906Z" fill="white"/>
</g>
<defs>
<clipPath id="clip0_1_2137">
<rect width="24" height="24" fill="white" transform="translate(0.5 0.253906)"/>
</clipPath>
</defs>
</svg>
